NotoSansThaiUI-Bold.ufo
<glyph name="uni02BC" format="2">
  <advance width="250"/>
  <unicode hex="02BC"/>
  <outline>
    <contour>
      <point x="237" y="713" type="line"/>
      <point x="65" y="713" type="line"/>
      <point x="57" y="633"/>
      <point x="38" y="519"/>
      <point x="20" y="428" type="curve"/>
      <point x="163" y="428" type="line"/>
      <point x="194" y="502"/>
      <point x="227" y="630"/>
      <point x="244" y="702" type="curve"/>
    </contour>
  </outline>
</glyph>
<glyph name="uni02D7" format="2">
  <advance width="218"/>
  <unicode hex="02D7"/>
  <outline>
    <contour>
      <point x="206" y="240" type="line"/>
      <point x="206" y="312" type="line"/>
      <point x="12" y="312" type="line"/>
      <point x="12" y="240" type="line"/>
    </contour>
  </outline>
</glyph>
<glyph name="tildecomb" format="2">
  <unicode hex="0303"/>
  <anchor x="-67" y="511" name="_top"/>
  <outline>
    <contour>
      <point x="-120" y="772" type="curve"/>
      <point x="-213" y="772" type="line"/>
      <point x="-219" y="730"/>
      <point x="-231" y="724"/>
      <point x="-238" y="724" type="curve" smooth="yes"/>
      <point x="-287" y="724"/>
      <point x="-354" y="771"/>
      <point x="-400" y="771" type="curve" smooth="yes"/>
      <point x="-469" y="771"/>
      <point x="-502" y="726"/>
      <point x="-510" y="604" type="curve"/>
      <point x="-419" y="604" type="line"/>
      <point x="-412" y="647"/>
      <point x="-401" y="652"/>
      <point x="-394" y="652" type="curve"/>
      <point x="-347" y="652"/>
      <point x="-285" y="605"/>
      <point x="-226" y="605" type="curve" smooth="yes"/>
      <point x="-168" y="605"/>
      <point x="-128" y="652"/>
    </contour>
  </outline>
</glyph>
<glyph name="macronbelowcomb" format="2">
  <unicode hex="0331"/>
  <anchor x="-25" y="0" name="_bottom"/>
  <outline>
    <contour>
      <point x="-120" y="-84" type="line"/>
      <point x="-466" y="-84" type="line"/>
      <point x="-466" y="-199" type="line"/>
      <point x="-120" y="-199" type="line"/>
    </contour>
  </outline>
</glyph>
<glyph name="koKai-thai" format="2">
  <advance width="640"/>
  <unicode hex="0E01"/>
  <note>
uni0E01
</note>
  <anchor x="584" y="0" name="bottom"/>
  <anchor x="564" y="506" name="top"/>
  <outline>
    <contour>
      <point x="65" y="0" type="line"/>
      <point x="257" y="0" type="line"/>
      <point x="257" y="157" type="line" smooth="yes"/>
      <point x="257" y="195"/>
      <point x="267" y="227"/>
      <point x="315" y="232" type="curve"/>
      <point x="326" y="308" type="line"/>
      <point x="253" y="337" type="line"/>
      <point x="256" y="358"/>
      <point x="270" y="380"/>
      <point x="317" y="380" type="curve" smooth="yes"/>
      <point x="373" y="380"/>
      <point x="392" y="350"/>
      <point x="392" y="306" type="curve" smooth="yes"/>
      <point x="392" y="0" type="line"/>
      <point x="584" y="0" type="line"/>
      <point x="584" y="314" type="line" smooth="yes"/>
      <point x="584" y="454"/>
      <point x="495" y="532"/>
      <point x="323" y="532" type="curve" smooth="yes"/>
      <point x="147" y="532"/>
      <point x="55" y="451"/>
      <point x="55" y="344" type="curve" smooth="yes"/>
      <point x="55" y="326" type="line"/>
      <point x="159" y="291" type="line"/>
      <point x="158" y="287" type="line"/>
      <point x="93" y="265"/>
      <point x="65" y="218"/>
      <point x="65" y="138" type="curve" smooth="yes"/>
    </contour>
  </outline>
</glyph>
<glyph name="khoKhai-thai" format="2">
  <advance width="610"/>
  <unicode hex="0E02"/>
  <note>
uni0E02
</note>
  <anchor x="534" y="0" name="bottom"/>
  <anchor x="554" y="506" name="top"/>
  <outline>
    <contour>
      <point x="304" y="-15" type="curve" smooth="yes"/>
      <point x="467" y="-15"/>
      <point x="554" y="55"/>
      <point x="554" y="204" type="curve" smooth="yes"/>
      <point x="554" y="517" type="line"/>
      <point x="364" y="517" type="line"/>
      <point x="364" y="207" type="line" smooth="yes"/>
      <point x="364" y="162"/>
      <point x="347" y="133"/>
      <point x="305" y="133" type="curve" smooth="yes"/>
      <point x="263" y="133"/>
      <point x="249" y="162"/>
      <point x="249" y="200" type="curve" smooth="yes"/>
      <point x="249" y="223" type="line" smooth="yes"/>
      <point x="249" y="270"/>
      <point x="265" y="283"/>
      <point x="280" y="312" type="curve" smooth="yes"/>
      <point x="296" y="344"/>
      <point x="303" y="371"/>
      <point x="303" y="403" type="curve" smooth="yes"/>
      <point x="303" y="480"/>
      <point x="267" y="527"/>
      <point x="170" y="527" type="curve" smooth="yes"/>
      <point x="133" y="527"/>
      <point x="79" y="520"/>
      <point x="34" y="498" type="curve"/>
      <point x="61" y="383" type="line"/>
      <point x="77" y="391"/>
      <point x="88" y="394"/>
      <point x="98" y="394" type="curve" smooth="yes"/>
      <point x="115" y="394"/>
      <point x="126" y="386"/>
      <point x="126" y="369" type="curve" smooth="yes"/>
      <point x="126" y="347"/>
      <point x="112" y="327"/>
      <point x="93" y="300" type="curve" smooth="yes"/>
      <point x="73" y="271"/>
      <point x="59" y="242"/>
      <point x="59" y="202" type="curve" smooth="yes"/>
      <point x="59" y="181" type="line" smooth="yes"/>
      <point x="59" y="55"/>
      <point x="138" y="-15"/>
    </contour>
  </outline>
</glyph>
<glyph name="khoKhuat-thai" format="2">
  <advance width="623"/>
  <unicode hex="0E03"/>
  <anchor x="537" y="0" name="bottom"/>
  <anchor x="567" y="506" name="top"/>
  <outline>
    <contour>
      <point x="315" y="-15" type="curve" smooth="yes"/>
      <point x="480" y="-15"/>
      <point x="567" y="55"/>
      <point x="567" y="204" type="curve" smooth="yes"/>
      <point x="567" y="517" type="line"/>
      <point x="377" y="517" type="line"/>
      <point x="377" y="207" type="line" smooth="yes"/>
      <point x="377" y="163"/>
      <point x="362" y="133"/>
      <point x="315" y="133" type="curve" smooth="yes"/>
      <point x="267" y="133"/>
      <point x="251" y="164"/>
      <point x="251" y="202" type="curve" smooth="yes"/>
      <point x="251" y="221" type="line" smooth="yes"/>
      <point x="251" y="273"/>
      <point x="269" y="289"/>
      <point x="291" y="322" type="curve" smooth="yes"/>
      <point x="312" y="353"/>
      <point x="329" y="372"/>
      <point x="329" y="436" type="curve" smooth="yes"/>
      <point x="329" y="517" type="line"/>
      <point x="229" y="517" type="line"/>
      <point x="213" y="483" type="line"/>
      <point x="203" y="474"/>
      <point x="192" y="472"/>
      <point x="184" y="472" type="curve" smooth="yes"/>
      <point x="165" y="472"/>
      <point x="157" y="484"/>
      <point x="157" y="517" type="curve"/>
      <point x="31" y="517" type="line"/>
      <point x="31" y="470" type="line" smooth="yes"/>
      <point x="31" y="402"/>
      <point x="65" y="365"/>
      <point x="115" y="365" type="curve" smooth="yes"/>
      <point x="126" y="365"/>
      <point x="137" y="367"/>
      <point x="149" y="369" type="curve"/>
      <point x="152" y="368" type="line"/>
      <point x="150" y="355"/>
      <point x="129" y="336"/>
      <point x="121" y="328" type="curve" smooth="yes"/>
      <point x="74" y="280"/>
      <point x="59" y="238"/>
      <point x="59" y="194" type="curve" smooth="yes"/>
      <point x="59" y="187" type="line" smooth="yes"/>
      <point x="59" y="61"/>
      <point x="138" y="-15"/>
    </contour>
  </outline>
</glyph>
<glyph name="khoKhwai-thai" format="2">
  <advance width="653"/>
  <unicode hex="0E04"/>
  <note>
uni0E04
</note>
  <anchor x="597" y="1" name="bottom"/>
  <anchor x="577" y="506" name="top"/>
  <outline>
    <contour>
      <point x="56" y="0" type="line"/>
      <point x="244" y="0" type="line"/>
      <point x="244" y="33" type="line" smooth="yes"/>
      <point x="244" y="96"/>
      <point x="263" y="149"/>
      <point x="345" y="149" type="curve" smooth="yes"/>
      <point x="363" y="149" type="line"/>
      <point x="363" y="287" type="line"/>
      <point x="345" y="287" type="line" smooth="yes"/>
      <point x="296" y="287"/>
      <point x="270" y="276"/>
      <point x="248" y="227" type="curve"/>
      <point x="244" y="228" type="line"/>
      <point x="244" y="289" type="line" smooth="yes"/>
      <point x="244" y="340"/>
      <point x="265" y="380"/>
      <point x="325" y="380" type="curve" smooth="yes"/>
      <point x="386" y="380"/>
      <point x="407" y="340"/>
      <point x="407" y="289" type="curve" smooth="yes"/>
      <point x="407" y="0" type="line"/>
      <point x="597" y="0" type="line"/>
      <point x="597" y="286" type="line" smooth="yes"/>
      <point x="597" y="446"/>
      <point x="517" y="532"/>
      <point x="328" y="532" type="curve" smooth="yes"/>
      <point x="140" y="532"/>
      <point x="56" y="446"/>
      <point x="56" y="286" type="curve" smooth="yes"/>
    </contour>
  </outline>
</glyph>
<glyph name="khoKhon-thai" format="2">
  <advance width="668"/>
  <unicode hex="0E05"/>
  <anchor x="611" y="1" name="bottom"/>
  <anchor x="591" y="506" name="top"/>
  <outline>
    <contour>
      <point x="56" y="0" type="line"/>
      <point x="244" y="0" type="line"/>
      <point x="244" y="33" type="line" smooth="yes"/>
      <point x="244" y="96"/>
      <point x="263" y="149"/>
      <point x="358" y="149" type="curve" smooth="yes"/>
      <point x="375" y="149" type="line"/>
      <point x="375" y="287" type="line"/>
      <point x="358" y="287" type="line" smooth="yes"/>
      <point x="296" y="287"/>
      <point x="270" y="276"/>
      <point x="248" y="227" type="curve"/>
      <point x="244" y="228" type="line"/>
      <point x="244" y="334" type="line" smooth="yes"/>
      <point x="244" y="367"/>
      <point x="256" y="378"/>
      <point x="274" y="378" type="curve" smooth="yes"/>
      <point x="291" y="378"/>
      <point x="302" y="366"/>
      <point x="305" y="339" type="curve"/>
      <point x="363" y="339" type="line"/>
      <point x="364" y="366"/>
      <point x="377" y="378"/>
      <point x="394" y="378" type="curve" smooth="yes"/>
      <point x="412" y="378"/>
      <point x="422" y="367"/>
      <point x="422" y="334" type="curve" smooth="yes"/>
      <point x="422" y="0" type="line"/>
      <point x="612" y="0" type="line"/>
      <point x="612" y="400" type="line" smooth="yes"/>
      <point x="612" y="489"/>
      <point x="552" y="532"/>
      <point x="463" y="532" type="curve" smooth="yes"/>
      <point x="399" y="532"/>
      <point x="351" y="508"/>
      <point x="336" y="462" type="curve"/>
      <point x="332" y="462" type="line"/>
      <point x="317" y="508"/>
      <point x="269" y="532"/>
      <point x="205" y="532" type="curve" smooth="yes"/>
      <point x="116" y="532"/>
      <point x="56" y="489"/>
      <point x="56" y="400" type="curve" smooth="yes"/>
    </contour>
  </outline>
</glyph>
<glyph name="khoRakhang-thai" format="2">
  <advance width="653"/>
  <unicode hex="0E06"/>
  <anchor x="587" y="0" name="bottom"/>
  <anchor x="597" y="506" name="top"/>
  <outline>
    <contour>
      <point x="419" y="-10" type="curve" smooth="yes"/>
      <point x="540" y="-10"/>
      <point x="597" y="68"/>
      <point x="597" y="190" type="curve" smooth="yes"/>
      <point x="597" y="517" type="line"/>
      <point x="405" y="517" type="line"/>
      <point x="405" y="244" type="line" smooth="yes"/>
      <point x="405" y="175"/>
      <point x="380" y="157"/>
      <point x="340" y="157" type="curve" smooth="yes"/>
      <point x="291" y="157"/>
      <point x="260" y="186"/>
      <point x="260" y="227" type="curve" smooth="yes"/>
      <point x="260" y="232" type="line" smooth="yes"/>
      <point x="260" y="270"/>
      <point x="278" y="283"/>
      <point x="305" y="322" type="curve" smooth="yes"/>
      <point x="331" y="359"/>
      <point x="343" y="384"/>
      <point x="343" y="436" type="curve" smooth="yes"/>
      <point x="343" y="517" type="line"/>
      <point x="236" y="517" type="line"/>
      <point x="220" y="483" type="line"/>
      <point x="210" y="474"/>
      <point x="199" y="472"/>
      <point x="191" y="472" type="curve" smooth="yes"/>
      <point x="172" y="472"/>
      <point x="164" y="484"/>
      <point x="164" y="517" type="curve"/>
      <point x="37" y="517" type="line"/>
      <point x="37" y="470" type="line" smooth="yes"/>
      <point x="37" y="402"/>
      <point x="71" y="365"/>
      <point x="121" y="365" type="curve" smooth="yes"/>
      <point x="132" y="365"/>
      <point x="143" y="367"/>
      <point x="155" y="369" type="curve"/>
      <point x="158" y="368" type="line"/>
      <point x="156" y="356"/>
      <point x="139" y="339"/>
      <point x="127" y="328" type="curve" smooth="yes"/>
      <point x="78" y="283"/>
      <point x="68" y="236"/>
      <point x="68" y="184" type="curve" smooth="yes"/>
      <point x="68" y="0" type="line"/>
      <point x="206" y="0" type="line"/>
      <point x="230" y="82" type="line"/>
      <point x="241" y="82" type="line"/>
      <point x="265" y="32"/>
      <point x="325" y="-10"/>
    </contour>
  </outline>
</glyph>
<glyph name="ngoNgu-thai" format="2">
  <advance width="578"/>
  <unicode hex="0E07"/>
  <note>
uni0E07
</note>
  <anchor x="451" y="0" name="bottom"/>
  <anchor x="495" y="506" name="top"/>
  <outline>
    <contour>
      <point x="149" y="0" type="line"/>
      <point x="246" y="0" type="line" smooth="yes"/>
      <point x="364" y="0"/>
      <point x="420" y="22"/>
      <point x="460" y="59" type="curve" smooth="yes"/>
      <point x="508" y="103"/>
      <point x="549" y="180"/>
      <point x="549" y="284" type="curve" smooth="yes"/>
      <point x="549" y="367"/>
      <point x="524" y="433"/>
      <point x="478" y="474" type="curve" smooth="yes"/>
      <point x="441" y="507"/>
      <point x="393" y="527"/>
      <point x="319" y="527" type="curve" smooth="yes"/>
      <point x="303" y="527"/>
      <point x="271" y="526"/>
      <point x="239" y="517" type="curve"/>
      <point x="271" y="373" type="line"/>
      <point x="278" y="375"/>
      <point x="283" y="376"/>
      <point x="290" y="376" type="curve" smooth="yes"/>
      <point x="329" y="376"/>
      <point x="353" y="342"/>
      <point x="353" y="278" type="curve" smooth="yes"/>
      <point x="353" y="240"/>
      <point x="345" y="202"/>
      <point x="327" y="174" type="curve" smooth="yes"/>
      <point x="318" y="160"/>
      <point x="309" y="152"/>
      <point x="296" y="152" type="curve" smooth="yes"/>
      <point x="293" y="152" type="line"/>
      <point x="193" y="517" type="line"/>
      <point x="0" y="517" type="line"/>
    </contour>
  </outline>
</glyph>
<glyph name="choChan-thai" format="2">
  <advance width="564"/>
  <unicode hex="0E08"/>
  <anchor x="471" y="0" name="bottom"/>
  <anchor x="505" y="506" name="top"/>
  <outline>
    <contour>
      <point x="87" y="0" type="line"/>
      <point x="244" y="0" type="line" smooth="yes"/>
      <point x="455" y="0"/>
      <point x="535" y="92"/>
      <point x="535" y="264" type="curve" smooth="yes"/>
      <point x="535" y="453"/>
      <point x="441" y="532"/>
      <point x="241" y="532" type="curve" smooth="yes"/>
      <point x="147" y="532"/>
      <point x="81" y="510"/>
      <point x="35" y="491" type="curve"/>
      <point x="35" y="337" type="line"/>
      <point x="73" y="356"/>
      <point x="127" y="382"/>
      <point x="200" y="382" type="curve" smooth="yes"/>
      <point x="283" y="382"/>
      <point x="341" y="356"/>
      <point x="341" y="259" type="curve" smooth="yes"/>
      <point x="341" y="190"/>
      <point x="308" y="143"/>
      <point x="259" y="143" type="curve" smooth="yes"/>
      <point x="257" y="143" type="line"/>
      <point x="257" y="310" type="line"/>
      <point x="44" y="310" type="line"/>
      <point x="44" y="204" type="line"/>
      <point x="87" y="204" type="line"/>
    </contour>
  </outline>
</glyph>
<glyph name="choChing-thai" format="2">
  <advance width="623"/>
  <unicode hex="0E09"/>
  <anchor x="566" y="0" name="bottom"/>
  <anchor x="557" y="506" name="top"/>
  <outline>
    <contour>
      <point x="228" y="-10" type="curve" smooth="yes"/>
      <point x="314" y="-10"/>
      <point x="364" y="33"/>
      <point x="390" y="77" type="curve"/>
      <point x="401" y="77" type="line"/>
      <point x="425" y="0" type="line"/>
      <point x="567" y="0" type="line"/>
      <point x="567" y="309" type="line" smooth="yes"/>
      <point x="567" y="452"/>
      <point x="492" y="532"/>
      <point x="310" y="532" type="curve" smooth="yes"/>
      <point x="216" y="532"/>
      <point x="130" y="511"/>
      <point x="84" y="491" type="curve"/>
      <point x="84" y="337" type="line"/>
      <point x="123" y="353"/>
      <point x="184" y="382"/>
      <point x="261" y="382" type="curve" smooth="yes"/>
      <point x="331" y="382"/>
      <point x="375" y="359"/>
      <point x="375" y="308" type="curve" smooth="yes"/>
      <point x="375" y="243" type="line" smooth="yes"/>
      <point x="375" y="184"/>
      <point x="345" y="157"/>
      <point x="301" y="157" type="curve" smooth="yes"/>
      <point x="268" y="157"/>
      <point x="248" y="171"/>
      <point x="248" y="221" type="curve" smooth="yes"/>
      <point x="248" y="295" type="line"/>
      <point x="66" y="295" type="line"/>
      <point x="66" y="150" type="line" smooth="yes"/>
      <point x="66" y="36"/>
      <point x="120" y="-10"/>
    </contour>
  </outline>
</glyph>
<glyph name="choChang-thai" format="2">
  <advance width="619"/>
  <unicode hex="0E0A"/>
  <anchor x="540" y="0" name="bottom"/>
  <anchor x="577" y="504" name="top"/>
  <outline>
    <contour>
      <point x="317" y="-15" type="curve" smooth="yes"/>
      <point x="483" y="-15"/>
      <point x="570" y="55"/>
      <point x="570" y="204" type="curve" smooth="yes"/>
      <point x="570" y="263" type="line" smooth="yes"/>
      <point x="570" y="315"/>
      <point x="552" y="346"/>
      <point x="511" y="357" type="curve"/>
      <point x="511" y="361" type="line"/>
      <point x="560" y="376"/>
      <point x="583" y="430"/>
      <point x="583" y="517" type="curve"/>
      <point x="393" y="517" type="line"/>
      <point x="393" y="452"/>
      <point x="380" y="408"/>
      <point x="333" y="408" type="curve" smooth="yes"/>
      <point x="326" y="408" type="line"/>
      <point x="326" y="315" type="line"/>
      <point x="332" y="315" type="line" smooth="yes"/>
      <point x="369" y="315"/>
      <point x="380" y="293"/>
      <point x="380" y="262" type="curve" smooth="yes"/>
      <point x="380" y="207" type="line" smooth="yes"/>
      <point x="380" y="164"/>
      <point x="365" y="133"/>
      <point x="316" y="133" type="curve" smooth="yes"/>
      <point x="268" y="133"/>
      <point x="253" y="163"/>
      <point x="253" y="202" type="curve" smooth="yes"/>
      <point x="253" y="223" type="line" smooth="yes"/>
      <point x="253" y="270"/>
      <point x="265" y="283"/>
      <point x="280" y="312" type="curve" smooth="yes"/>
      <point x="296" y="344"/>
      <point x="303" y="371"/>
      <point x="303" y="403" type="curve" smooth="yes"/>
      <point x="303" y="480"/>
      <point x="267" y="527"/>
      <point x="170" y="527" type="curve" smooth="yes"/>
      <point x="133" y="527"/>
      <point x="79" y="520"/>
      <point x="34" y="498" type="curve"/>
      <point x="61" y="383" type="line"/>
      <point x="77" y="391"/>
      <point x="88" y="394"/>
      <point x="98" y="394" type="curve" smooth="yes"/>
      <point x="115" y="394"/>
      <point x="126" y="386"/>
      <point x="126" y="369" type="curve" smooth="yes"/>
      <point x="126" y="347"/>
      <point x="112" y="327"/>
      <point x="93" y="300" type="curve" smooth="yes"/>
      <point x="73" y="271"/>
      <point x="63" y="241"/>
      <point x="63" y="201" type="curve" smooth="yes"/>
      <point x="63" y="182" type="line" smooth="yes"/>
      <point x="63" y="56"/>
      <point x="148" y="-15"/>
    </contour>
  </outline>
</glyph>
<glyph name="soSo-thai" format="2">
  <advance width="623"/>
  <unicode hex="0E0B"/>
  <note>
uni0E0B
</note>
  <anchor x="544" y="0" name="bottom"/>
  <anchor x="580" y="503" name="top"/>
  <outline>
    <contour>
      <point x="317" y="-15" type="curve" smooth="yes"/>
      <point x="488" y="-15"/>
      <point x="574" y="56"/>
      <point x="574" y="204" type="curve" smooth="yes"/>
      <point x="574" y="264" type="line" smooth="yes"/>
      <point x="574" y="315"/>
      <point x="556" y="346"/>
      <point x="515" y="357" type="curve"/>
      <point x="515" y="361" type="line"/>
      <point x="564" y="378"/>
      <point x="587" y="430"/>
      <point x="587" y="517" type="curve"/>
      <point x="397" y="517" type="line"/>
      <point x="397" y="452"/>
      <point x="386" y="408"/>
      <point x="344" y="408" type="curve" smooth="yes"/>
      <point x="340" y="408" type="line"/>
      <point x="340" y="315" type="line"/>
      <point x="343" y="315" type="line" smooth="yes"/>
      <point x="372" y="315"/>
      <point x="384" y="293"/>
      <point x="384" y="262" type="curve" smooth="yes"/>
      <point x="384" y="207" type="line" smooth="yes"/>
      <point x="384" y="164"/>
      <point x="369" y="133"/>
      <point x="317" y="133" type="curve" smooth="yes"/>
      <point x="268" y="133"/>
      <point x="252" y="163"/>
      <point x="252" y="202" type="curve" smooth="yes"/>
      <point x="252" y="220" type="line" smooth="yes"/>
      <point x="252" y="273"/>
      <point x="270" y="289"/>
      <point x="292" y="322" type="curve" smooth="yes"/>
      <point x="313" y="353"/>
      <point x="320" y="372"/>
      <point x="320" y="436" type="curve" smooth="yes"/>
      <point x="320" y="517" type="line"/>
      <point x="230" y="517" type="line"/>
      <point x="214" y="483" type="line"/>
      <point x="204" y="474"/>
      <point x="193" y="472"/>
      <point x="185" y="472" type="curve" smooth="yes"/>
      <point x="166" y="472"/>
      <point x="158" y="484"/>
      <point x="158" y="517" type="curve"/>
      <point x="31" y="517" type="line"/>
      <point x="31" y="470" type="line" smooth="yes"/>
      <point x="31" y="402"/>
      <point x="65" y="365"/>
      <point x="115" y="365" type="curve" smooth="yes"/>
      <point x="126" y="365"/>
      <point x="137" y="367"/>
      <point x="149" y="369" type="curve"/>
      <point x="152" y="368" type="line"/>
      <point x="150" y="355"/>
      <point x="129" y="336"/>
      <point x="121" y="328" type="curve" smooth="yes"/>
      <point x="74" y="280"/>
      <point x="60" y="238"/>
      <point x="60" y="194" type="curve" smooth="yes"/>
      <point x="60" y="187" type="line" smooth="yes"/>
      <point x="60" y="61"/>
      <point x="143" y="-15"/>
    </contour>
  </outline>
</glyph>
<glyph name="choChoe-thai" format="2">
  <advance width="926"/>
  <unicode hex="0E0C"/>
  <anchor x="848" y="0" name="bottom"/>
  <anchor x="870" y="506" name="top"/>
  <outline>
    <contour>
      <point x="208" y="-10" type="curve" smooth="yes"/>
      <point x="254" y="-10"/>
      <point x="293" y="1"/>
      <point x="317" y="13" type="curve"/>
      <point x="303" y="119" type="line"/>
      <point x="293" y="115"/>
      <point x="281" y="113"/>
      <point x="271" y="113" type="curve" smooth="yes"/>
      <point x="243" y="113"/>
      <point x="232" y="124"/>
      <point x="232" y="150" type="curve" smooth="yes"/>
      <point x="232" y="186" type="line" smooth="yes"/>
      <point x="232" y="224"/>
      <point x="248" y="234"/>
      <point x="295" y="236" type="curve"/>
      <point x="307" y="312" type="line"/>
      <point x="240" y="341" type="line"/>
      <point x="244" y="369"/>
      <point x="265" y="384"/>
      <point x="307" y="384" type="curve" smooth="yes"/>
      <point x="355" y="384"/>
      <point x="374" y="360"/>
      <point x="374" y="313" type="curve" smooth="yes"/>
      <point x="374" y="0" type="line"/>
      <point x="517" y="0" type="line"/>
      <point x="541" y="82" type="line"/>
      <point x="552" y="82" type="line"/>
      <point x="576" y="32"/>
      <point x="623" y="-10"/>
      <point x="713" y="-10" type="curve" smooth="yes"/>
      <point x="828" y="-10"/>
      <point x="870" y="59"/>
      <point x="870" y="170" type="curve" smooth="yes"/>
      <point x="870" y="517" type="line"/>
      <point x="678" y="517" type="line"/>
      <point x="678" y="224" type="line" smooth="yes"/>
      <point x="678" y="176"/>
      <point x="654" y="157"/>
      <point x="627" y="157" type="curve" smooth="yes"/>
      <point x="590" y="157"/>
      <point x="562" y="197"/>
      <point x="562" y="257" type="curve" smooth="yes"/>
      <point x="562" y="331" type="line" smooth="yes"/>
      <point x="562" y="454"/>
      <point x="481" y="532"/>
      <point x="309" y="532" type="curve" smooth="yes"/>
      <point x="133" y="532"/>
      <point x="42" y="450"/>
      <point x="42" y="344" type="curve" smooth="yes"/>
      <point x="42" y="326" type="line"/>
      <point x="146" y="291" type="line"/>
      <point x="145" y="287" type="line"/>
      <point x="80" y="265"/>
      <point x="46" y="234"/>
      <point x="46" y="166" type="curve" smooth="yes"/>
      <point x="46" y="131" type="line" smooth="yes"/>
      <point x="46" y="45"/>
      <point x="101" y="-10"/>
    </contour>
  </outline>
</glyph>
<glyph name="yoYing-thai" format="2">
  <advance width="940"/>
  <unicode hex="0E0D"/>
  <anchor x="845" y="-168" name="bottom"/>
  <anchor x="874" y="506" name="top"/>
  <outline>
    <contour>
      <point x="587" y="-203" type="curve" smooth="yes"/>
      <point x="776" y="-203"/>
      <point x="874" y="-115"/>
      <point x="874" y="77" type="curve" smooth="yes"/>
      <point x="874" y="517" type="line"/>
      <point x="682" y="517" type="line"/>
      <point x="682" y="277" type="line" smooth="yes"/>
      <point x="682" y="217"/>
      <point x="655" y="177"/>
      <point x="615" y="177" type="curve" smooth="yes"/>
      <point x="587" y="177"/>
      <point x="562" y="196"/>
      <point x="562" y="244" type="curve" smooth="yes"/>
      <point x="562" y="331" type="line" smooth="yes"/>
      <point x="562" y="454"/>
      <point x="481" y="532"/>
      <point x="309" y="532" type="curve" smooth="yes"/>
      <point x="133" y="532"/>
      <point x="42" y="449"/>
      <point x="42" y="344" type="curve" smooth="yes"/>
      <point x="42" y="326" type="line"/>
      <point x="146" y="291" type="line"/>
      <point x="145" y="287" type="line"/>
      <point x="80" y="265"/>
      <point x="46" y="234"/>
      <point x="46" y="166" type="curve" smooth="yes"/>
      <point x="46" y="131" type="line" smooth="yes"/>
      <point x="46" y="45"/>
      <point x="101" y="-10"/>
      <point x="208" y="-10" type="curve" smooth="yes"/>
      <point x="254" y="-10"/>
      <point x="293" y="1"/>
      <point x="317" y="13" type="curve"/>
      <point x="303" y="119" type="line"/>
      <point x="293" y="115"/>
      <point x="281" y="113"/>
      <point x="271" y="113" type="curve" smooth="yes"/>
      <point x="243" y="113"/>
      <point x="232" y="124"/>
      <point x="232" y="150" type="curve" smooth="yes"/>
      <point x="232" y="186" type="line" smooth="yes"/>
      <point x="232" y="224"/>
      <point x="248" y="234"/>
      <point x="295" y="236" type="curve"/>
      <point x="307" y="312" type="line"/>
      <point x="240" y="341" type="line"/>
      <point x="244" y="369"/>
      <point x="269" y="384"/>
      <point x="306" y="384" type="curve" smooth="yes"/>
      <point x="349" y="384"/>
      <point x="374" y="364"/>
      <point x="374" y="320" type="curve" smooth="yes"/>
      <point x="374" y="170" type="line" smooth="yes"/>
      <point x="374" y="62"/>
      <point x="437" y="12"/>
      <point x="540" y="12" type="curve" smooth="yes"/>
      <point x="616" y="12"/>
      <point x="655" y="41"/>
      <point x="679" y="72" type="curve"/>
      <point x="688" y="72" type="line"/>
      <point x="688" y="41" type="line" smooth="yes"/>
      <point x="688" y="-15"/>
      <point x="642" y="-56"/>
      <point x="554" y="-56" type="curve" smooth="yes"/>
      <point x="488" y="-56"/>
      <point x="436" y="-33"/>
      <point x="408" y="-18" type="curve"/>
      <point x="408" y="-171" type="line"/>
      <point x="460" y="-194"/>
      <point x="525" y="-203"/>
    </contour>
  </outline>
</glyph>
<glyph name="doChada-thai" format="2">
  <advance width="646"/>
  <unicode hex="0E0E"/>
  <anchor x="590" y="-188" name="bottom"/>
  <anchor x="552" y="506" name="top"/>
  <outline>
    <contour>
      <point x="78" y="-210" type="line"/>
      <point x="253" y="-210" type="line"/>
      <point x="253" y="-201" type="line" smooth="yes"/>
      <point x="253" y="-176"/>
      <point x="267" y="-162"/>
      <point x="304" y="-162" type="curve" smooth="yes"/>
      <point x="338" y="-162"/>
      <point x="392" y="-172"/>
      <point x="418" y="-210" type="curve"/>
      <point x="590" y="-210" type="line"/>
      <point x="590" y="314" type="line" smooth="yes"/>
      <point x="590" y="454"/>
      <point x="502" y="532"/>
      <point x="327" y="532" type="curve" smooth="yes"/>
      <point x="147" y="532"/>
      <point x="61" y="451"/>
      <point x="61" y="344" type="curve" smooth="yes"/>
      <point x="61" y="326" type="line"/>
      <point x="165" y="291" type="line"/>
      <point x="164" y="287" type="line"/>
      <point x="112" y="274"/>
      <point x="90" y="238"/>
      <point x="90" y="191" type="curve" smooth="yes"/>
      <point x="90" y="149" type="line" smooth="yes"/>
      <point x="90" y="129"/>
      <point x="80" y="118"/>
      <point x="57" y="118" type="curve" smooth="yes"/>
      <point x="50" y="118"/>
      <point x="44" y="119"/>
      <point x="36" y="122" type="curve"/>
      <point x="19" y="25" type="line"/>
      <point x="43" y="12"/>
      <point x="79" y="1"/>
      <point x="126" y="1" type="curve" smooth="yes"/>
      <point x="214" y="1"/>
      <point x="275" y="38"/>
      <point x="275" y="124" type="curve" smooth="yes"/>
      <point x="275" y="181" type="line" smooth="yes"/>
      <point x="275" y="219"/>
      <point x="283" y="235"/>
      <point x="314" y="236" type="curve"/>
      <point x="326" y="311" type="line"/>
      <point x="259" y="337" type="line"/>
      <point x="262" y="358"/>
      <point x="276" y="380"/>
      <point x="323" y="380" type="curve" smooth="yes"/>
      <point x="378" y="380"/>
      <point x="398" y="350"/>
      <point x="398" y="306" type="curve" smooth="yes"/>
      <point x="398" y="-103" type="line"/>
      <point x="430" y="-92" type="line"/>
      <point x="404" y="-49"/>
      <point x="327" y="-20"/>
      <point x="244" y="-20" type="curve" smooth="yes"/>
      <point x="142" y="-20"/>
      <point x="78" y="-63"/>
      <point x="78" y="-193" type="curve" smooth="yes"/>
    </contour>
  </outline>
</glyph>
<glyph name="toPatak-thai" format="2">
  <advance width="646"/>
  <unicode hex="0E0F"/>
  <anchor x="590" y="-188" name="bottom"/>
  <anchor x="552" y="506" name="top"/>
  <outline>
    <contour>
      <point x="45" y="-210" type="line"/>
      <point x="190" y="-210" type="line"/>
      <point x="190" y="-207" type="line" smooth="yes"/>
      <point x="190" y="-190"/>
      <point x="193" y="-167"/>
      <point x="223" y="-167" type="curve" smooth="yes"/>
      <point x="251" y="-167"/>
      <point x="270" y="-189"/>
      <point x="281" y="-210" type="curve"/>
      <point x="324" y="-210" type="line"/>
      <point x="367" y="-164" type="line"/>
      <point x="433" y="-210" type="line"/>
      <point x="590" y="-210" type="line"/>
      <point x="590" y="314" type="line"/>
      <point x="590" y="454"/>
      <point x="502" y="532"/>
      <point x="327" y="532" type="curve" smooth="yes"/>
      <point x="147" y="532"/>
      <point x="61" y="451"/>
      <point x="61" y="344" type="curve" smooth="yes"/>
      <point x="61" y="326" type="line"/>
      <point x="165" y="291" type="line"/>
      <point x="164" y="287" type="line"/>
      <point x="112" y="274"/>
      <point x="90" y="238"/>
      <point x="90" y="191" type="curve" smooth="yes"/>
      <point x="90" y="149" type="line" smooth="yes"/>
      <point x="90" y="129"/>
      <point x="80" y="118"/>
      <point x="57" y="118" type="curve" smooth="yes"/>
      <point x="50" y="118"/>
      <point x="44" y="119"/>
      <point x="36" y="122" type="curve"/>
      <point x="19" y="25" type="line"/>
      <point x="43" y="12"/>
      <point x="79" y="1"/>
      <point x="126" y="1" type="curve" smooth="yes"/>
      <point x="214" y="1"/>
      <point x="275" y="38"/>
      <point x="275" y="124" type="curve" smooth="yes"/>
      <point x="275" y="181" type="line" smooth="yes"/>
      <point x="275" y="219"/>
      <point x="283" y="235"/>
      <point x="314" y="236" type="curve"/>
      <point x="326" y="311" type="line"/>
      <point x="259" y="337" type="line"/>
      <point x="262" y="358"/>
      <point x="276" y="380"/>
      <point x="323" y="380" type="curve" smooth="yes"/>
      <point x="378" y="380"/>
      <point x="398" y="350"/>
      <point x="398" y="306" type="curve" smooth="yes"/>
      <point x="398" y="-87" type="line"/>
      <point x="416" y="-82" type="line"/>
      <point x="349" y="-39" type="line"/>
      <point x="298" y="-87" type="line"/>
      <point x="269" y="-41"/>
      <point x="227" y="-22"/>
      <point x="176" y="-22" type="curve" smooth="yes"/>
      <point x="102" y="-22"/>
      <point x="45" y="-62"/>
      <point x="45" y="-168" type="curve" smooth="yes"/>
    </contour>
  </outline>
</glyph>
<glyph name="thoThan-thai" format="2">
  <advance width="576"/>
  <unicode hex="0E10"/>
  <anchor x="536" y="-188" name="bottom"/>
  <anchor x="515" y="506" name="top"/>
  <outline>
    <contour>
      <point x="92" y="0" type="line"/>
      <point x="249" y="0" type="line" smooth="yes"/>
      <point x="455" y="0"/>
      <point x="541" y="99"/>
      <point x="541" y="252" type="curve" smooth="yes"/>
      <point x="541" y="375"/>
      <point x="493" y="429"/>
      <point x="436" y="438" type="curve"/>
      <point x="418" y="512"/>
      <point x="344" y="532"/>
      <point x="249" y="532" type="curve" smooth="yes"/>
      <point x="151" y="532"/>
      <point x="87" y="510"/>
      <point x="40" y="491" type="curve"/>
      <point x="40" y="337" type="line"/>
      <point x="78" y="356"/>
      <point x="131" y="382"/>
      <point x="207" y="382" type="curve" smooth="yes"/>
      <point x="289" y="382"/>
      <point x="346" y="354"/>
      <point x="346" y="259" type="curve" smooth="yes"/>
      <point x="346" y="190"/>
      <point x="313" y="143"/>
      <point x="265" y="143" type="curve" smooth="yes"/>
      <point x="262" y="143" type="line"/>
      <point x="262" y="310" type="line"/>
      <point x="49" y="310" type="line"/>
      <point x="49" y="204" type="line"/>
      <point x="92" y="204" type="line"/>
    </contour>
    <contour>
      <point x="36" y="-210" type="line"/>
      <point x="169" y="-210" type="line"/>
      <point x="169" y="-207" type="line" smooth="yes"/>
      <point x="169" y="-190"/>
      <point x="173" y="-167"/>
      <point x="201" y="-167" type="curve" smooth="yes"/>
      <point x="230" y="-167"/>
      <point x="248" y="-189"/>
      <point x="260" y="-210" type="curve"/>
      <point x="292" y="-210" type="line"/>
      <point x="325" y="-165" type="line"/>
      <point x="378" y="-210" type="line"/>
      <point x="536" y="-210" type="line"/>
      <point x="536" y="-15" type="line"/>
      <point x="383" y="-15" type="line"/>
      <point x="383" y="-93" type="line"/>
      <point x="391" y="-88" type="line"/>
      <point x="323" y="-42" type="line"/>
      <point x="276" y="-93" type="line"/>
      <point x="244" y="-50"/>
      <point x="212" y="-28"/>
      <point x="158" y="-28" type="curve" smooth="yes"/>
      <point x="85" y="-28"/>
      <point x="36" y="-69"/>
      <point x="36" y="-174" type="curve" smooth="yes"/>
    </contour>
    <contour>
      <point x="431" y="386" type="line"/>
      <point x="538" y="423"/>
      <point x="565" y="493"/>
      <point x="565" y="551" type="curve"/>
      <point x="419" y="551" type="line"/>
      <point x="424" y="521"/>
      <point x="403" y="494"/>
      <point x="347" y="472" type="curve"/>
    </contour>
  </outline>
</glyph>
<glyph name="thoNangmontho-thai" format="2">
  <advance width="653"/>
  <unicode hex="0E11"/>
  <anchor x="596" y="0" name="bottom"/>
  <anchor x="566" y="506" name="top"/>
  <outline>
    <contour>
      <point x="69" y="0" type="line"/>
      <point x="261" y="0" type="line"/>
      <point x="261" y="202" type="line" smooth="yes"/>
      <point x="261" y="251"/>
      <point x="272" y="278"/>
      <point x="296" y="312" type="curve" smooth="yes"/>
      <point x="327" y="356"/>
      <point x="346" y="370"/>
      <point x="369" y="370" type="curve" smooth="yes"/>
      <point x="396" y="370"/>
      <point x="405" y="351"/>
      <point x="405" y="315" type="curve" smooth="yes"/>
      <point x="405" y="0" type="line"/>
      <point x="597" y="0" type="line"/>
      <point x="597" y="410" type="line" smooth="yes"/>
      <point x="597" y="486"/>
      <point x="547" y="526"/>
      <point x="476" y="526" type="curve" smooth="yes"/>
      <point x="398" y="526"/>
      <point x="345" y="486"/>
      <point x="319" y="444" type="curve"/>
      <point x="314" y="444" type="line"/>
      <point x="314" y="517" type="line"/>
      <point x="224" y="517" type="line"/>
      <point x="209" y="483" type="line"/>
      <point x="198" y="474"/>
      <point x="187" y="472"/>
      <point x="178" y="472" type="curve" smooth="yes"/>
      <point x="160" y="472"/>
      <point x="152" y="484"/>
      <point x="152" y="517" type="curve"/>
      <point x="31" y="517" type="line"/>
      <point x="31" y="470" type="line" smooth="yes"/>
      <point x="31" y="402"/>
      <point x="65" y="365"/>
      <point x="115" y="365" type="curve" smooth="yes"/>
      <point x="126" y="365"/>
      <point x="137" y="367"/>
      <point x="149" y="369" type="curve"/>
      <point x="152" y="368" type="line"/>
      <point x="150" y="357"/>
      <point x="139" y="348"/>
      <point x="121" y="329" type="curve" smooth="yes"/>
      <point x="70" y="275"/>
      <point x="69" y="239"/>
      <point x="69" y="195" type="curve" smooth="yes"/>
    </contour>
  </outline>
</glyph>
<glyph name="thoPhuthao-thai" format="2">
  <advance width="952"/>
  <unicode hex="0E12"/>
  <anchor x="874" y="0" name="bottom"/>
  <anchor x="895" y="506" name="top"/>
  <outline>
    <contour>
      <point x="270" y="-10" type="curve" smooth="yes"/>
      <point x="304" y="-10"/>
      <point x="324" y="-6"/>
      <point x="347" y="3" type="curve"/>
      <point x="329" y="135" type="line"/>
      <point x="321" y="133"/>
      <point x="312" y="132"/>
      <point x="304" y="132" type="curve" smooth="yes"/>
      <point x="246" y="132"/>
      <point x="231" y="175"/>
      <point x="231" y="267" type="curve" smooth="yes"/>
      <point x="231" y="347"/>
      <point x="243" y="375"/>
      <point x="265" y="375" type="curve" smooth="yes"/>
      <point x="275" y="375"/>
      <point x="287" y="369"/>
      <point x="290" y="340" type="curve"/>
      <point x="351" y="340" type="line"/>
      <point x="354" y="367"/>
      <point x="364" y="375"/>
      <point x="378" y="375" type="curve" smooth="yes"/>
      <point x="391" y="375"/>
      <point x="400" y="368"/>
      <point x="400" y="335" type="curve" smooth="yes"/>
      <point x="400" y="0" type="line"/>
      <point x="542" y="0" type="line"/>
      <point x="567" y="82" type="line"/>
      <point x="578" y="82" type="line"/>
      <point x="601" y="32"/>
      <point x="649" y="-10"/>
      <point x="738" y="-10" type="curve" smooth="yes"/>
      <point x="854" y="-10"/>
      <point x="895" y="59"/>
      <point x="895" y="170" type="curve" smooth="yes"/>
      <point x="895" y="517" type="line"/>
      <point x="703" y="517" type="line"/>
      <point x="703" y="224" type="line" smooth="yes"/>
      <point x="703" y="176"/>
      <point x="679" y="157"/>
      <point x="653" y="157" type="curve" smooth="yes"/>
      <point x="615" y="157"/>
      <point x="588" y="197"/>
      <point x="588" y="257" type="curve" smooth="yes"/>
      <point x="588" y="385" type="line" smooth="yes"/>
      <point x="588" y="474"/>
      <point x="544" y="526"/>
      <point x="452" y="526" type="curve" smooth="yes"/>
      <point x="405" y="526"/>
      <point x="350" y="513"/>
      <point x="327" y="457" type="curve"/>
      <point x="323" y="457" type="line"/>
      <point x="296" y="512"/>
      <point x="260" y="526"/>
      <point x="212" y="526" type="curve" smooth="yes"/>
      <point x="98" y="526"/>
      <point x="39" y="442"/>
      <point x="39" y="265" type="curve" smooth="yes"/>
      <point x="39" y="94"/>
      <point x="92" y="-10"/>
    </contour>
  </outline>
</glyph>
<glyph name="noNen-thai" format="2">
  <advance width="940"/>
  <unicode hex="0E13"/>
  <anchor x="874" y="0" name="bottom"/>
  <anchor x="874" y="506" name="top"/>
  <outline>
    <contour>
      <point x="208" y="-10" type="curve" smooth="yes"/>
      <point x="254" y="-10"/>
      <point x="293" y="1"/>
      <point x="317" y="13" type="curve"/>
      <point x="303" y="119" type="line"/>
      <point x="293" y="115"/>
      <point x="281" y="113"/>
      <point x="271" y="113" type="curve" smooth="yes"/>
      <point x="243" y="113"/>
      <point x="232" y="124"/>
      <point x="232" y="150" type="curve" smooth="yes"/>
      <point x="232" y="186" type="line" smooth="yes"/>
      <point x="232" y="224"/>
      <point x="248" y="234"/>
      <point x="295" y="236" type="curve"/>
      <point x="307" y="312" type="line"/>
      <point x="240" y="341" type="line"/>
      <point x="244" y="369"/>
      <point x="269" y="384"/>
      <point x="306" y="384" type="curve" smooth="yes"/>
      <point x="349" y="384"/>
      <point x="374" y="364"/>
      <point x="374" y="320" type="curve" smooth="yes"/>
      <point x="374" y="160" type="line" smooth="yes"/>
      <point x="374" y="48"/>
      <point x="420" y="-10"/>
      <point x="535" y="-10" type="curve" smooth="yes"/>
      <point x="620" y="-10"/>
      <point x="668" y="32"/>
      <point x="692" y="82" type="curve"/>
      <point x="703" y="82" type="line"/>
      <point x="727" y="0" type="line"/>
      <point x="874" y="0" type="line"/>
      <point x="874" y="517" type="line"/>
      <point x="682" y="517" type="line"/>
      <point x="682" y="257" type="line" smooth="yes"/>
      <point x="682" y="197"/>
      <point x="655" y="157"/>
      <point x="615" y="157" type="curve" smooth="yes"/>
      <point x="587" y="157"/>
      <point x="562" y="176"/>
      <point x="562" y="224" type="curve" smooth="yes"/>
      <point x="562" y="331" type="line" smooth="yes"/>
      <point x="562" y="454"/>
      <point x="481" y="532"/>
      <point x="309" y="532" type="curve" smooth="yes"/>
      <point x="133" y="532"/>
      <point x="42" y="449"/>
      <point x="42" y="344" type="curve" smooth="yes"/>
      <point x="42" y="326" type="line"/>
      <point x="146" y="291" type="line"/>
      <point x="145" y="287" type="line"/>
      <point x="80" y="265"/>
      <point x="46" y="234"/>
      <point x="46" y="166" type="curve" smooth="yes"/>
      <point x="46" y="131" type="line" smooth="yes"/>
      <point x="46" y="45"/>
      <point x="101" y="-10"/>
    </contour>
  </outline>
</glyph>
<glyph name="doDek-thai" format="2">
  <advance width="632"/>
  <unicode hex="0E14"/>
  <anchor x="575" y="0" name="bottom"/>
  <anchor x="546" y="506" name="top"/>
  <outline>
    <contour>
      <point x="259" y="-10" type="curve" smooth="yes"/>
      <point x="287" y="-10"/>
      <point x="322" y="-7"/>
      <point x="344" y="3" type="curve"/>
      <point x="326" y="145" type="line"/>
      <point x="317" y="143"/>
      <point x="305" y="141"/>
      <point x="295" y="141" type="curve" smooth="yes"/>
      <point x="250" y="141"/>
      <point x="230" y="182"/>
      <point x="230" y="253" type="curve" smooth="yes"/>
      <point x="230" y="349"/>
      <point x="262" y="380"/>
      <point x="315" y="380" type="curve" smooth="yes"/>
      <point x="362" y="380"/>
      <point x="384" y="356"/>
      <point x="384" y="316" type="curve" smooth="yes"/>
      <point x="384" y="0" type="line"/>
      <point x="576" y="0" type="line"/>
      <point x="576" y="330" type="line" smooth="yes"/>
      <point x="576" y="451"/>
      <point x="508" y="532"/>
      <point x="317" y="532" type="curve" smooth="yes"/>
      <point x="153" y="532"/>
      <point x="34" y="475"/>
      <point x="34" y="249" type="curve" smooth="yes"/>
      <point x="34" y="90"/>
      <point x="96" y="-10"/>
    </contour>
  </outline>
</glyph>
<glyph name="toTao-thai" format="2">
  <advance width="652"/>
  <unicode hex="0E15"/>
  <note>
uni0E15
</note>
  <anchor x="597" y="0" name="bottom"/>
  <anchor x="566" y="506" name="top"/>
  <outline>
    <contour>
      <point x="275" y="-10" type="curve" smooth="yes"/>
      <point x="307" y="-10"/>
      <point x="328" y="-6"/>
      <point x="351" y="3" type="curve"/>
      <point x="333" y="135" type="line"/>
      <point x="325" y="133"/>
      <point x="316" y="132"/>
      <point x="307" y="132" type="curve" smooth="yes"/>
      <point x="251" y="132"/>
      <point x="235" y="175"/>
      <point x="235" y="262" type="curve" smooth="yes"/>
      <point x="235" y="347"/>
      <point x="247" y="375"/>
      <point x="267" y="375" type="curve" smooth="yes"/>
      <point x="280" y="375"/>
      <point x="290" y="369"/>
      <point x="294" y="340" type="curve"/>
      <point x="355" y="340" type="line"/>
      <point x="359" y="367"/>
      <point x="369" y="375"/>
      <point x="384" y="375" type="curve" smooth="yes"/>
      <point x="395" y="375"/>
      <point x="404" y="367"/>
      <point x="404" y="335" type="curve" smooth="yes"/>
      <point x="404" y="0" type="line"/>
      <point x="596" y="0" type="line"/>
      <point x="596" y="385" type="line" smooth="yes"/>
      <point x="596" y="474"/>
      <point x="552" y="526"/>
      <point x="456" y="526" type="curve" smooth="yes"/>
      <point x="408" y="526"/>
      <point x="354" y="513"/>
      <point x="331" y="457" type="curve"/>
      <point x="327" y="457" type="line"/>
      <point x="300" y="512"/>
      <point x="263" y="526"/>
      <point x="216" y="526" type="curve" smooth="yes"/>
      <point x="97" y="526"/>
      <point x="39" y="443"/>
      <point x="39" y="262" type="curve" smooth="yes"/>
      <point x="39" y="94"/>
      <point x="92" y="-10"/>
    </contour>
  </outline>
</glyph>
<glyph name="thoThahan-thai" format="2">
  <advance width="653"/>
  <unicode hex="0E17"/>
  <anchor x="596" y="0" name="bottom"/>
  <anchor x="567" y="506" name="top"/>
  <outline>
    <contour>
      <point x="66" y="0" type="line"/>
      <point x="258" y="0" type="line"/>
      <point x="258" y="202" type="line" smooth="yes"/>
      <point x="258" y="318"/>
      <point x="288" y="359"/>
      <point x="340" y="359" type="curve" smooth="yes"/>
      <point x="382" y="359"/>
      <point x="405" y="339"/>
      <point x="405" y="273" type="curve" smooth="yes"/>
      <point x="405" y="0" type="line"/>
      <point x="597" y="0" type="line"/>
      <point x="597" y="320" type="line" smooth="yes"/>
      <point x="597" y="457"/>
      <point x="539" y="526"/>
      <point x="408" y="526" type="curve" smooth="yes"/>
      <point x="316" y="526"/>
      <point x="264" y="484"/>
      <point x="243" y="436" type="curve"/>
      <point x="232" y="436" type="line"/>
      <point x="208" y="517" type="line"/>
      <point x="66" y="517" type="line"/>
    </contour>
  </outline>
</glyph>
<glyph name="thoThong-thai" format="2">
  <advance width="555"/>
  <unicode hex="0E18"/>
  <anchor x="469" y="0" name="bottom"/>
  <anchor x="509" y="506" name="top"/>
  <outline>
    <contour>
      <point x="289" y="-15" type="curve" smooth="yes"/>
      <point x="478" y="-15"/>
      <point x="529" y="67"/>
      <point x="529" y="165" type="curve" smooth="yes"/>
      <point x="529" y="257"/>
      <point x="485" y="306"/>
      <point x="368" y="341" type="curve" smooth="yes"/>
      <point x="285" y="366"/>
      <point x="226" y="361"/>
      <point x="226" y="382" type="curve" smooth="yes"/>
      <point x="226" y="395"/>
      <point x="253" y="397"/>
      <point x="280" y="397" type="curve" smooth="yes"/>
      <point x="353" y="397"/>
      <point x="442" y="376"/>
      <point x="482" y="364" type="curve"/>
      <point x="482" y="501" type="line"/>
      <point x="446" y="517"/>
      <point x="376" y="532"/>
      <point x="286" y="532" type="curve" smooth="yes"/>
      <point x="146" y="532"/>
      <point x="34" y="496"/>
      <point x="34" y="373" type="curve" smooth="yes"/>
      <point x="34" y="278"/>
      <point x="101" y="252"/>
      <point x="201" y="232" type="curve" smooth="yes"/>
      <point x="292" y="214"/>
      <point x="349" y="210"/>
      <point x="349" y="160" type="curve" smooth="yes"/>
      <point x="349" y="128"/>
      <point x="321" y="112"/>
      <point x="275" y="112" type="curve" smooth="yes"/>
      <point x="254" y="112"/>
      <point x="232" y="115"/>
      <point x="210" y="119" type="curve"/>
      <point x="210" y="217" type="line"/>
      <point x="52" y="217" type="line"/>
      <point x="52" y="24" type="line"/>
      <point x="120" y="0"/>
      <point x="207" y="-15"/>
    </contour>
  </outline>
</glyph>
<glyph name="noNu-thai" format="2">
  <advance width="653"/>
  <unicode hex="0E19"/>
  <note>
uni0E19
</note>
  <anchor x="587" y="0" name="bottom"/>
  <anchor x="587" y="506" name="top"/>
  <outline>
    <contour>
      <point x="240" y="-10" type="curve" smooth="yes"/>
      <point x="341" y="-10"/>
      <point x="388" y="33"/>
      <point x="410" y="82" type="curve"/>
      <point x="421" y="82" type="line"/>
      <point x="445" y="0" type="line"/>
      <point x="587" y="0" type="line"/>
      <point x="587" y="517" type="line"/>
      <point x="395" y="517" type="line"/>
      <point x="395" y="314" type="line" smooth="yes"/>
      <point x="395" y="197"/>
      <point x="365" y="157"/>
      <point x="311" y="157" type="curve" smooth="yes"/>
      <point x="271" y="157"/>
      <point x="248" y="178"/>
      <point x="248" y="244" type="curve" smooth="yes"/>
      <point x="248" y="517" type="line"/>
      <point x="56" y="517" type="line"/>
      <point x="56" y="201" type="line" smooth="yes"/>
      <point x="56" y="68"/>
      <point x="115" y="-10"/>
    </contour>
  </outline>
</glyph>
<glyph name="boBaimai-thai" format="2">
  <advance width="639"/>
  <unicode hex="0E1A"/>
  <note>
uni0E1A
</note>
  <anchor x="553" y="0" name="bottom"/>
  <anchor x="583" y="506" name="top"/>
  <outline>
    <contour>
      <point x="319" y="-15" type="curve" smooth="yes"/>
      <point x="503" y="-15"/>
      <point x="583" y="71"/>
      <point x="583" y="231" type="curve" smooth="yes"/>
      <point x="583" y="517" type="line"/>
      <point x="391" y="517" type="line"/>
      <point x="391" y="217" type="line" smooth="yes"/>
      <point x="391" y="166"/>
      <point x="370" y="137"/>
      <point x="319" y="137" type="curve" smooth="yes"/>
      <point x="269" y="137"/>
      <point x="248" y="166"/>
      <point x="248" y="217" type="curve" smooth="yes"/>
      <point x="248" y="517" type="line"/>
      <point x="56" y="517" type="line"/>
      <point x="56" y="231" type="line" smooth="yes"/>
      <point x="56" y="71"/>
      <point x="136" y="-15"/>
    </contour>
  </outline>
</glyph>
<glyph name="poPla-thai" format="2">
  <advance width="641"/>
  <unicode hex="0E1B"/>
  <note>
uni0E1B
</note>
  <anchor x="553" y="0" name="bottom"/>
  <anchor x="351" y="506" name="top"/>
  <outline>
    <contour>
      <point x="319" y="-15" type="curve" smooth="yes"/>
      <point x="503" y="-15"/>
      <point x="583" y="71"/>
      <point x="583" y="231" type="curve" smooth="yes"/>
      <point x="583" y="702" type="line"/>
      <point x="391" y="702" type="line"/>
      <point x="391" y="217" type="line" smooth="yes"/>
      <point x="391" y="166"/>
      <point x="370" y="137"/>
      <point x="319" y="137" type="curve" smooth="yes"/>
      <point x="269" y="137"/>
      <point x="248" y="166"/>
      <point x="248" y="217" type="curve" smooth="yes"/>
      <point x="248" y="517" type="line"/>
      <point x="56" y="517" type="line"/>
      <point x="56" y="231" type="line" smooth="yes"/>
      <point x="56" y="71"/>
      <point x="136" y="-15"/>
    </contour>
  </outline>
</glyph>
<glyph name="phoPhung-thai" format="2">
  <advance width="690"/>
  <unicode hex="0E1C"/>
  <anchor x="624" y="0" name="bottom"/>
  <anchor x="624" y="506" name="top"/>
  <outline>
    <contour>
      <point x="62" y="0" type="line"/>
      <point x="249" y="0" type="line"/>
      <point x="341" y="168" type="line"/>
      <point x="345" y="168" type="line"/>
      <point x="437" y="0" type="line"/>
      <point x="624" y="0" type="line"/>
      <point x="624" y="517" type="line"/>
      <point x="449" y="517" type="line"/>
      <point x="449" y="320" type="line" smooth="yes"/>
      <point x="449" y="296"/>
      <point x="451" y="252"/>
      <point x="460" y="181" type="curve"/>
      <point x="455" y="181" type="line"/>
      <point x="431" y="235"/>
      <point x="420" y="256"/>
      <point x="397" y="296" type="curve" smooth="yes"/>
      <point x="370" y="343" type="line"/>
      <point x="316" y="343" type="line"/>
      <point x="289" y="296" type="line" smooth="yes"/>
      <point x="277" y="274"/>
      <point x="259" y="245"/>
      <point x="232" y="181" type="curve"/>
      <point x="227" y="181" type="line"/>
      <point x="236" y="252"/>
      <point x="238" y="296"/>
      <point x="238" y="320" type="curve" smooth="yes"/>
      <point x="238" y="358" type="line" smooth="yes"/>
      <point x="238" y="377"/>
      <point x="245" y="389"/>
      <point x="265" y="389" type="curve" smooth="yes"/>
      <point x="270" y="389"/>
      <point x="280" y="388"/>
      <point x="289" y="386" type="curve"/>
      <point x="315" y="503" type="line"/>
      <point x="295" y="514"/>
      <point x="264" y="526"/>
      <point x="210" y="526" type="curve" smooth="yes"/>
      <point x="118" y="526"/>
      <point x="62" y="491"/>
      <point x="62" y="380" type="curve" smooth="yes"/>
    </contour>
  </outline>
</glyph>
<glyph name="foFa-thai" format="2">
  <advance width="690"/>
  <unicode hex="0E1D"/>
  <anchor x="624" y="0" name="bottom"/>
  <anchor x="390" y="515" name="top"/>
  <outline>
    <contour>
      <point x="62" y="0" type="line"/>
      <point x="249" y="0" type="line"/>
      <point x="341" y="174" type="line"/>
      <point x="345" y="174" type="line"/>
      <point x="437" y="0" type="line"/>
      <point x="624" y="0" type="line"/>
      <point x="624" y="715" type="line"/>
      <point x="449" y="715" type="line"/>
      <point x="449" y="324" type="line" smooth="yes"/>
      <point x="449" y="299"/>
      <point x="451" y="255"/>
      <point x="460" y="183" type="curve"/>
      <point x="455" y="183" type="line"/>
      <point x="431" y="237"/>
      <point x="420" y="259"/>
      <point x="397" y="300" type="curve" smooth="yes"/>
      <point x="370" y="349" type="line"/>
      <point x="316" y="349" type="line"/>
      <point x="289" y="300" type="line" smooth="yes"/>
      <point x="277" y="277"/>
      <point x="259" y="248"/>
      <point x="232" y="183" type="curve"/>
      <point x="227" y="183" type="line"/>
      <point x="236" y="255"/>
      <point x="238" y="299"/>
      <point x="238" y="324" type="curve" smooth="yes"/>
      <point x="238" y="366" type="line" smooth="yes"/>
      <point x="238" y="386"/>
      <point x="245" y="398"/>
      <point x="265" y="398" type="curve" smooth="yes"/>
      <point x="270" y="398"/>
      <point x="280" y="397"/>
      <point x="289" y="395" type="curve"/>
      <point x="315" y="513" type="line"/>
      <point x="295" y="524"/>
      <point x="264" y="536"/>
      <point x="210" y="536" type="curve" smooth="yes"/>
      <point x="118" y="536"/>
      <point x="62" y="500"/>
      <point x="62" y="388" type="curve" smooth="yes"/>
    </contour>
  </outline>
</glyph>
<glyph name="phoPhan-thai" format="2">
  <advance width="736"/>
  <unicode hex="0E1E"/>
  <note>
uni0E1E
</note>
  <anchor x="626" y="0" name="bottom"/>
  <anchor x="679" y="506" name="top"/>
  <outline>
    <contour>
      <point x="110" y="0" type="line"/>
      <point x="292" y="0" type="line"/>
      <point x="336" y="149" type="line" smooth="yes"/>
      <point x="357" y="220"/>
      <point x="360" y="260"/>
      <point x="366" y="292" type="curve"/>
      <point x="370" y="292" type="line"/>
      <point x="375" y="260"/>
      <point x="377" y="215"/>
      <point x="395" y="149" type="curve" smooth="yes"/>
      <point x="437" y="0" type="line"/>
      <point x="626" y="0" type="line"/>
      <point x="717" y="517" type="line"/>
      <point x="533" y="517" type="line"/>
      <point x="515" y="372" type="line" smooth="yes"/>
      <point x="512" y="347"/>
      <point x="506" y="297"/>
      <point x="503" y="238" type="curve"/>
      <point x="500" y="238" type="line"/>
      <point x="483" y="296"/>
      <point x="471" y="345"/>
      <point x="462" y="375" type="curve" smooth="yes"/>
      <point x="420" y="517" type="line"/>
      <point x="316" y="517" type="line"/>
      <point x="273" y="375" type="line" smooth="yes"/>
      <point x="264" y="345"/>
      <point x="253" y="296"/>
      <point x="236" y="238" type="curve"/>
      <point x="233" y="238" type="line"/>
      <point x="229" y="297"/>
      <point x="224" y="347"/>
      <point x="220" y="372" type="curve" smooth="yes"/>
      <point x="201" y="517" type="line"/>
      <point x="19" y="517" type="line"/>
    </contour>
  </outline>
</glyph>
<glyph name="foFan-thai" format="2">
  <advance width="730"/>
  <unicode hex="0E1F"/>
  <anchor x="624" y="0" name="bottom"/>
  <anchor x="467" y="506" name="top"/>
  <outline>
    <contour>
      <point x="110" y="0" type="line"/>
      <point x="292" y="0" type="line"/>
      <point x="336" y="149" type="line" smooth="yes"/>
      <point x="357" y="220"/>
      <point x="360" y="260"/>
      <point x="366" y="292" type="curve"/>
      <point x="370" y="292" type="line"/>
      <point x="375" y="260"/>
      <point x="377" y="215"/>
      <point x="395" y="149" type="curve" smooth="yes"/>
      <point x="437" y="0" type="line"/>
      <point x="626" y="0" type="line"/>
      <point x="735" y="702" type="line"/>
      <point x="552" y="702" type="line"/>
      <point x="515" y="372" type="line" smooth="yes"/>
      <point x="513" y="347"/>
      <point x="507" y="297"/>
      <point x="503" y="238" type="curve"/>
      <point x="500" y="238" type="line"/>
      <point x="483" y="299"/>
      <point x="471" y="348"/>
      <point x="463" y="375" type="curve" smooth="yes"/>
      <point x="421" y="517" type="line"/>
      <point x="316" y="517" type="line"/>
      <point x="273" y="375" type="line" smooth="yes"/>
      <point x="265" y="348"/>
      <point x="253" y="299"/>
      <point x="236" y="238" type="curve"/>
      <point x="233" y="238" type="line"/>
      <point x="230" y="298"/>
      <point x="224" y="344"/>
      <point x="220" y="372" type="curve" smooth="yes"/>
      <point x="201" y="517" type="line"/>
      <point x="19" y="517" type="line"/>
    </contour>
  </outline>
</glyph>
<glyph name="phoSamphao-thai" format="2">
  <advance width="646"/>
  <unicode hex="0E20"/>
  <anchor x="590" y="0" name="bottom"/>
  <anchor x="570" y="506" name="top"/>
  <outline>
    <contour>
      <point x="126" y="-10" type="curve" smooth="yes"/>
      <point x="214" y="-10"/>
      <point x="275" y="28"/>
      <point x="275" y="114" type="curve" smooth="yes"/>
      <point x="275" y="181" type="line" smooth="yes"/>
      <point x="275" y="219"/>
      <point x="283" y="235"/>
      <point x="314" y="236" type="curve"/>
      <point x="326" y="311" type="line"/>
      <point x="259" y="337" type="line"/>
      <point x="262" y="358"/>
      <point x="276" y="380"/>
      <point x="323" y="380" type="curve" smooth="yes"/>
      <point x="378" y="380"/>
      <point x="398" y="350"/>
      <point x="398" y="306" type="curve" smooth="yes"/>
      <point x="398" y="0" type="line"/>
      <point x="590" y="0" type="line"/>
      <point x="590" y="314" type="line" smooth="yes"/>
      <point x="590" y="454"/>
      <point x="502" y="532"/>
      <point x="327" y="532" type="curve" smooth="yes"/>
      <point x="147" y="532"/>
      <point x="61" y="451"/>
      <point x="61" y="344" type="curve" smooth="yes"/>
      <point x="61" y="326" type="line"/>
      <point x="165" y="291" type="line"/>
      <point x="164" y="287" type="line"/>
      <point x="112" y="274"/>
      <point x="90" y="238"/>
      <point x="90" y="191" type="curve" smooth="yes"/>
      <point x="90" y="138" type="line" smooth="yes"/>
      <point x="90" y="118"/>
      <point x="80" y="108"/>
      <point x="57" y="108" type="curve" smooth="yes"/>
      <point x="50" y="108"/>
      <point x="44" y="109"/>
      <point x="36" y="112" type="curve"/>
      <point x="19" y="15" type="line"/>
      <point x="43" y="2"/>
      <point x="79" y="-10"/>
    </contour>
  </outline>
</glyph>
<glyph name="moMa-thai" format="2">
  <advance width="653"/>
  <unicode hex="0E21"/>
  <note>
uni0E21
</note>
  <anchor x="587" y="0" name="bottom"/>
  <anchor x="597" y="506" name="top"/>
  <outline>
    <contour>
      <point x="419" y="-10" type="curve" smooth="yes"/>
      <point x="540" y="-10"/>
      <point x="597" y="68"/>
      <point x="597" y="190" type="curve" smooth="yes"/>
      <point x="597" y="517" type="line"/>
      <point x="405" y="517" type="line"/>
      <point x="405" y="244" type="line" smooth="yes"/>
      <point x="405" y="178"/>
      <point x="382" y="157"/>
      <point x="342" y="157" type="curve" smooth="yes"/>
      <point x="288" y="157"/>
      <point x="258" y="197"/>
      <point x="258" y="314" type="curve" smooth="yes"/>
      <point x="258" y="517" type="line"/>
      <point x="66" y="517" type="line"/>
      <point x="66" y="0" type="line"/>
      <point x="208" y="0" type="line"/>
      <point x="232" y="82" type="line"/>
      <point x="243" y="82" type="line"/>
      <point x="267" y="32"/>
      <point x="318" y="-10"/>
    </contour>
  </outline>
</glyph>
<glyph name="yoYak-thai" format="2">
  <advance width="626"/>
  <unicode hex="0E22"/>
  <note>
uni0E22
</note>
  <anchor x="540" y="0" name="bottom"/>
  <anchor x="570" y="506" name="top"/>
  <outline>
    <contour>
      <point x="300" y="-15" type="curve" smooth="yes"/>
      <point x="487" y="-15"/>
      <point x="570" y="50"/>
      <point x="570" y="177" type="curve" smooth="yes"/>
      <point x="570" y="517" type="line"/>
      <point x="378" y="517" type="line"/>
      <point x="378" y="174" type="line" smooth="yes"/>
      <point x="378" y="152"/>
      <point x="361" y="126"/>
      <point x="306" y="126" type="curve" smooth="yes"/>
      <point x="247" y="126"/>
      <point x="232" y="155"/>
      <point x="232" y="174" type="curve" smooth="yes"/>
      <point x="232" y="199"/>
      <point x="255" y="210"/>
      <point x="297" y="210" type="curve" smooth="yes"/>
      <point x="319" y="210" type="line"/>
      <point x="319" y="321" type="line"/>
      <point x="297" y="321" type="line" smooth="yes"/>
      <point x="263" y="321"/>
      <point x="230" y="327"/>
      <point x="230" y="359" type="curve" smooth="yes"/>
      <point x="230" y="378"/>
      <point x="244" y="392"/>
      <point x="276" y="392" type="curve" smooth="yes"/>
      <point x="289" y="392"/>
      <point x="305" y="389"/>
      <point x="312" y="386" type="curve"/>
      <point x="340" y="509" type="line"/>
      <point x="317" y="519"/>
      <point x="273" y="527"/>
      <point x="225" y="527" type="curve" smooth="yes"/>
      <point x="91" y="527"/>
      <point x="40" y="467"/>
      <point x="40" y="393" type="curve" smooth="yes"/>
      <point x="40" y="329"/>
      <point x="81" y="299"/>
      <point x="130" y="281" type="curve"/>
      <point x="130" y="273" type="line"/>
      <point x="86" y="262"/>
      <point x="38" y="225"/>
      <point x="38" y="148" type="curve" smooth="yes"/>
      <point x="38" y="53"/>
      <point x="110" y="-15"/>
    </contour>
  </outline>
</glyph>
<glyph name="roRua-thai" format="2">
  <advance width="526"/>
  <unicode hex="0E23"/>
  <note>
uni0E23
</note>
  <anchor x="444" y="0" name="bottom"/>
  <anchor x="487" y="506" name="top"/>
  <outline>
    <contour>
      <point x="270" y="-15" type="curve" smooth="yes"/>
      <point x="447" y="-15"/>
      <point x="499" y="69"/>
      <point x="499" y="162" type="curve" smooth="yes"/>
      <point x="499" y="234"/>
      <point x="462" y="275"/>
      <point x="354" y="314" type="curve" smooth="yes"/>
      <point x="276" y="342"/>
      <point x="236" y="344"/>
      <point x="236" y="369" type="curve" smooth="yes"/>
      <point x="236" y="386"/>
      <point x="258" y="389"/>
      <point x="284" y="389" type="curve" smooth="yes"/>
      <point x="349" y="389"/>
      <point x="418" y="370"/>
      <point x="457" y="356" type="curve"/>
      <point x="457" y="501" type="line"/>
      <point x="422" y="516"/>
      <point x="358" y="532"/>
      <point x="277" y="532" type="curve" smooth="yes"/>
      <point x="149" y="532"/>
      <point x="44" y="493"/>
      <point x="44" y="367" type="curve" smooth="yes"/>
      <point x="44" y="274"/>
      <point x="106" y="240"/>
      <point x="194" y="208" type="curve" smooth="yes"/>
      <point x="276" y="178"/>
      <point x="307" y="173"/>
      <point x="307" y="152" type="curve" smooth="yes"/>
      <point x="307" y="139"/>
      <point x="293" y="133"/>
      <point x="268" y="133" type="curve" smooth="yes"/>
      <point x="208" y="133"/>
      <point x="120" y="168"/>
      <point x="78" y="193" type="curve"/>
      <point x="25" y="42" type="line"/>
      <point x="95" y="3"/>
      <point x="189" y="-15"/>
    </contour>
  </outline>
</glyph>
<glyph name="ru-thai" format="2">
  <advance width="627"/>
  <unicode hex="0E24"/>
  <anchor x="571" y="-188" name="bottom"/>
  <anchor x="554" y="506" name="top"/>
  <outline>
    <contour>
      <point x="379" y="-210" type="line"/>
      <point x="571" y="-210" type="line"/>
      <point x="571" y="94" type="line"/>
      <point x="379" y="94" type="line"/>
    </contour>
    <component base="thoThung-thai"/>
  </outline>
</glyph>
<glyph name="loLing-thai" format="2">
  <advance width="604"/>
  <unicode hex="0E25"/>
  <anchor x="548" y="0" name="bottom"/>
  <anchor x="542" y="506" name="top"/>
  <outline>
    <contour>
      <point x="360" y="0" type="line"/>
      <point x="548" y="0" type="line"/>
      <point x="548" y="314" type="line" smooth="yes"/>
      <point x="548" y="491"/>
      <point x="426" y="532"/>
      <point x="295" y="532" type="curve" smooth="yes"/>
      <point x="195" y="532"/>
      <point x="119" y="507"/>
      <point x="81" y="489" type="curve"/>
      <point x="81" y="338" type="line"/>
      <point x="124" y="362"/>
      <point x="200" y="388"/>
      <point x="270" y="388" type="curve" smooth="yes"/>
      <point x="329" y="388"/>
      <point x="360" y="371"/>
      <point x="360" y="329" type="curve" smooth="yes"/>
    </contour>
    <contour>
      <point x="204" y="-10" type="curve" smooth="yes"/>
      <point x="244" y="-10"/>
      <point x="286" y="-3"/>
      <point x="310" y="6" type="curve"/>
      <point x="297" y="116" type="line"/>
      <point x="287" y="114"/>
      <point x="272" y="110"/>
      <point x="260" y="110" type="curve" smooth="yes"/>
      <point x="236" y="110"/>
      <point x="218" y="121"/>
      <point x="218" y="143" type="curve" smooth="yes"/>
      <point x="218" y="165"/>
      <point x="234" y="180"/>
      <point x="272" y="185" type="curve" smooth="yes"/>
      <point x="389" y="199" type="line"/>
      <point x="389" y="329" type="line"/>
      <point x="251" y="316" type="line" smooth="yes"/>
      <point x="98" y="302"/>
      <point x="28" y="237"/>
      <point x="28" y="137" type="curve" smooth="yes"/>
      <point x="28" y="44"/>
      <point x="91" y="-10"/>
    </contour>
  </outline>
</glyph>
<glyph name="lu-thai" format="2">
  <advance width="646"/>
  <unicode hex="0E26"/>
  <anchor x="590" y="-188" name="bottom"/>
  <anchor x="554" y="506" name="top"/>
  <outline>
    <contour>
      <point x="398" y="-210" type="line"/>
      <point x="590" y="-210" type="line"/>
      <point x="590" y="94" type="line"/>
      <point x="398" y="94" type="line"/>
    </contour>
    <component base="phoSamphao-thai"/>
  </outline>
</glyph>
<glyph name="woWaen-thai" format="2">
  <advance width="517"/>
  <unicode hex="0E27"/>
  <guideline x="447" y="129" angle="90"/>
  <anchor x="415" y="0" name="bottom"/>
  <anchor x="481" y="506" name="top"/>
  <outline>
    <contour>
      <point x="226" y="-15" type="curve" smooth="yes"/>
      <point x="386" y="-15"/>
      <point x="483" y="71"/>
      <point x="483" y="261" type="curve" smooth="yes"/>
      <point x="483" y="436"/>
      <point x="401" y="532"/>
      <point x="217" y="532" type="curve" smooth="yes"/>
      <point x="149" y="532"/>
      <point x="93" y="518"/>
      <point x="50" y="501" type="curve"/>
      <point x="50" y="345" type="line"/>
      <point x="80" y="363"/>
      <point x="133" y="380"/>
      <point x="178" y="380" type="curve" smooth="yes"/>
      <point x="252" y="380"/>
      <point x="287" y="338"/>
      <point x="287" y="261" type="curve" smooth="yes"/>
      <point x="287" y="176"/>
      <point x="246" y="137"/>
      <point x="191" y="137" type="curve" smooth="yes"/>
      <point x="157" y="137"/>
      <point x="106" y="152"/>
      <point x="77" y="170" type="curve"/>
      <point x="29" y="32" type="line"/>
      <point x="78" y="6"/>
      <point x="148" y="-15"/>
    </contour>
  </outline>
</glyph>
<glyph name="soSala-thai" format="2">
  <advance width="664"/>
  <unicode hex="0E28"/>
  <anchor x="599" y="0" name="bottom"/>
  <anchor x="563" y="506" name="top"/>
  <outline>
    <contour>
      <point x="56" y="0" type="line"/>
      <point x="246" y="0" type="line"/>
      <point x="246" y="33" type="line" smooth="yes"/>
      <point x="246" y="96"/>
      <point x="265" y="149"/>
      <point x="347" y="149" type="curve" smooth="yes"/>
      <point x="364" y="149" type="line"/>
      <point x="364" y="287" type="line"/>
      <point x="347" y="287" type="line" smooth="yes"/>
      <point x="298" y="287"/>
      <point x="272" y="276"/>
      <point x="250" y="227" type="curve"/>
      <point x="246" y="228" type="line"/>
      <point x="246" y="289" type="line" smooth="yes"/>
      <point x="246" y="340"/>
      <point x="267" y="380"/>
      <point x="327" y="380" type="curve" smooth="yes"/>
      <point x="388" y="380"/>
      <point x="409" y="340"/>
      <point x="409" y="289" type="curve" smooth="yes"/>
      <point x="409" y="0" type="line"/>
      <point x="599" y="0" type="line"/>
      <point x="599" y="283" type="line" smooth="yes"/>
      <point x="599" y="368"/>
      <point x="576" y="435"/>
      <point x="503" y="457" type="curve"/>
      <point x="472" y="512"/>
      <point x="406" y="532"/>
      <point x="331" y="532" type="curve" smooth="yes"/>
      <point x="140" y="532"/>
      <point x="56" y="446"/>
      <point x="56" y="286" type="curve" smooth="yes"/>
    </contour>
    <contour>
      <point x="507" y="386" type="line"/>
      <point x="614" y="423"/>
      <point x="641" y="493"/>
      <point x="641" y="551" type="curve"/>
      <point x="495" y="551" type="line"/>
      <point x="500" y="521"/>
      <point x="479" y="494"/>
      <point x="423" y="472" type="curve"/>
    </contour>
  </outline>
</glyph>
<glyph name="soRusi-thai" format="2">
  <advance width="683"/>
  <unicode hex="0E29"/>
  <anchor x="573" y="0" name="bottom"/>
  <anchor x="603" y="506" name="top"/>
  <outline>
    <contour>
      <point x="329" y="-15" type="curve" smooth="yes"/>
      <point x="523" y="-15"/>
      <point x="603" y="71"/>
      <point x="603" y="230" type="curve" smooth="yes"/>
      <point x="603" y="517" type="line"/>
      <point x="413" y="517" type="line"/>
      <point x="413" y="218" type="line" smooth="yes"/>
      <point x="413" y="158"/>
      <point x="390" y="135"/>
      <point x="333" y="135" type="curve" smooth="yes"/>
      <point x="269" y="135"/>
      <point x="246" y="165"/>
      <point x="246" y="218" type="curve" smooth="yes"/>
      <point x="246" y="517" type="line"/>
      <point x="56" y="517" type="line"/>
      <point x="56" y="230" type="line" smooth="yes"/>
      <point x="56" y="71"/>
      <point x="136" y="-15"/>
    </contour>
    <contour>
      <point x="395" y="198" type="curve" smooth="yes"/>
      <point x="653" y="198" type="line"/>
      <point x="653" y="308" type="line"/>
      <point x="407" y="308" type="line" smooth="yes"/>
      <point x="392" y="308"/>
      <point x="380" y="321"/>
      <point x="380" y="338" type="curve" smooth="yes"/>
      <point x="380" y="345"/>
      <point x="382" y="359"/>
      <point x="386" y="367" type="curve"/>
      <point x="285" y="390" type="line"/>
      <point x="270" y="372"/>
      <point x="262" y="340"/>
      <point x="262" y="312" type="curve" smooth="yes"/>
      <point x="262" y="258"/>
      <point x="293" y="198"/>
    </contour>
  </outline>
</glyph>
<glyph name="soSua-thai" format="2">
  <advance width="610"/>
  <unicode hex="0E2A"/>
  <note>
uni0E2A
</note>
  <anchor x="548" y="0" name="bottom"/>
  <anchor x="548" y="506" name="top"/>
  <outline>
    <contour>
      <point x="360" y="0" type="line"/>
      <point x="548" y="0" type="line"/>
      <point x="548" y="314" type="line" smooth="yes"/>
      <point x="548" y="398"/>
      <point x="520" y="452"/>
      <point x="458" y="464" type="curve"/>
      <point x="430" y="521"/>
      <point x="365" y="532"/>
      <point x="293" y="532" type="curve" smooth="yes"/>
      <point x="196" y="532"/>
      <point x="119" y="507"/>
      <point x="81" y="489" type="curve"/>
      <point x="81" y="338" type="line"/>
      <point x="124" y="362"/>
      <point x="200" y="388"/>
      <point x="270" y="388" type="curve" smooth="yes"/>
      <point x="329" y="388"/>
      <point x="360" y="371"/>
      <point x="360" y="329" type="curve" smooth="yes"/>
    </contour>
    <contour>
      <point x="204" y="-10" type="curve" smooth="yes"/>
      <point x="244" y="-10"/>
      <point x="286" y="-3"/>
      <point x="310" y="6" type="curve"/>
      <point x="297" y="116" type="line"/>
      <point x="287" y="114"/>
      <point x="272" y="110"/>
      <point x="260" y="110" type="curve" smooth="yes"/>
      <point x="236" y="110"/>
      <point x="218" y="120"/>
      <point x="218" y="143" type="curve" smooth="yes"/>
      <point x="218" y="166"/>
      <point x="234" y="180"/>
      <point x="272" y="185" type="curve" smooth="yes"/>
      <point x="389" y="199" type="line"/>
      <point x="389" y="329" type="line"/>
      <point x="251" y="316" type="line" smooth="yes"/>
      <point x="98" y="302"/>
      <point x="28" y="237"/>
      <point x="28" y="137" type="curve" smooth="yes"/>
      <point x="28" y="44"/>
      <point x="91" y="-10"/>
    </contour>
    <contour>
      <point x="456" y="386" type="line"/>
      <point x="563" y="423"/>
      <point x="590" y="493"/>
      <point x="590" y="551" type="curve"/>
      <point x="444" y="551" type="line"/>
      <point x="449" y="521"/>
      <point x="428" y="494"/>
      <point x="372" y="472" type="curve"/>
    </contour>
  </outline>
</glyph>
<glyph name="hoHip-thai" format="2">
  <advance width="633"/>
  <unicode hex="0E2B"/>
  <note>
uni0E2B
</note>
  <anchor x="586" y="0" name="bottom"/>
  <anchor x="559" y="506" name="top"/>
  <outline>
    <contour>
      <point x="66" y="0" type="line"/>
      <point x="254" y="0" type="line"/>
      <point x="254" y="124" type="line"/>
      <point x="594" y="510" type="line"/>
      <point x="594" y="517" type="line"/>
      <point x="387" y="517" type="line"/>
      <point x="259" y="349" type="line"/>
      <point x="254" y="349" type="line"/>
      <point x="254" y="517" type="line"/>
      <point x="66" y="517" type="line"/>
    </contour>
    <contour>
      <point x="394" y="0" type="line"/>
      <point x="586" y="0" type="line"/>
      <point x="586" y="200" type="line" smooth="yes"/>
      <point x="586" y="286"/>
      <point x="529" y="366"/>
      <point x="415" y="366" type="curve"/>
      <point x="302" y="234" type="line"/>
      <point x="355" y="234"/>
      <point x="394" y="222"/>
      <point x="394" y="161" type="curve" smooth="yes"/>
    </contour>
  </outline>
</glyph>
<glyph name="loChula-thai" format="2">
  <advance width="723"/>
  <unicode hex="0E2C"/>
  <anchor x="631" y="0" name="bottom"/>
  <outline>
    <contour>
      <point x="95" y="0" type="line"/>
      <point x="287" y="0" type="line"/>
      <point x="322" y="100" type="line" smooth="yes"/>
      <point x="335" y="138"/>
      <point x="349" y="177"/>
      <point x="361" y="245" type="curve"/>
      <point x="365" y="245" type="line"/>
      <point x="377" y="177"/>
      <point x="388" y="137"/>
      <point x="400" y="100" type="curve" smooth="yes"/>
      <point x="433" y="0" type="line"/>
      <point x="636" y="0" type="line"/>
      <point x="696" y="402" type="line" smooth="yes"/>
      <point x="704" y="452"/>
      <point x="688" y="506"/>
      <point x="631" y="524" type="curve"/>
      <point x="631" y="528" type="line"/>
      <point x="706" y="540"/>
      <point x="738" y="598"/>
      <point x="738" y="669" type="curve" smooth="yes"/>
      <point x="738" y="673" type="line"/>
      <point x="558" y="673" type="line"/>
      <point x="558" y="669" type="line" smooth="yes"/>
      <point x="558" y="625"/>
      <point x="532" y="588"/>
      <point x="441" y="588" type="curve" smooth="yes"/>
      <point x="363" y="588" type="line"/>
      <point x="363" y="467" type="line"/>
      <point x="437" y="467" type="line" smooth="yes"/>
      <point x="495" y="467"/>
      <point x="518" y="446"/>
      <point x="510" y="385" type="curve" smooth="yes"/>
      <point x="503" y="331" type="line" smooth="yes"/>
      <point x="500" y="309"/>
      <point x="496" y="257"/>
      <point x="493" y="192" type="curve"/>
      <point x="490" y="192" type="line"/>
      <point x="476" y="235"/>
      <point x="460" y="278"/>
      <point x="443" y="320" type="curve" smooth="yes"/>
      <point x="412" y="398" type="line"/>
      <point x="314" y="398" type="line"/>
      <point x="282" y="320" type="line" smooth="yes"/>
      <point x="265" y="278"/>
      <point x="251" y="235"/>
      <point x="234" y="192" type="curve"/>
      <point x="232" y="192" type="line"/>
      <point x="233" y="252"/>
      <point x="230" y="309"/>
      <point x="227" y="334" type="curve" smooth="yes"/>
      <point x="207" y="517" type="line"/>
      <point x="19" y="517" type="line"/>
    </contour>
  </outline>
</glyph>
<glyph name="oAng-thai" format="2">
  <advance width="593"/>
  <unicode hex="0E2D"/>
  <note>
uni0E2D
</note>
  <anchor x="497" y="0" name="bottom"/>
  <anchor x="527" y="506" name="top"/>
  <outline>
    <contour>
      <point x="290" y="-15" type="curve" smooth="yes"/>
      <point x="479" y="-15"/>
      <point x="564" y="80"/>
      <point x="564" y="255" type="curve" smooth="yes"/>
      <point x="564" y="424"/>
      <point x="482" y="532"/>
      <point x="278" y="532" type="curve" smooth="yes"/>
      <point x="205" y="532"/>
      <point x="114" y="517"/>
      <point x="68" y="493" type="curve"/>
      <point x="68" y="339" type="line"/>
      <point x="102" y="356"/>
      <point x="180" y="380"/>
      <point x="236" y="380" type="curve" smooth="yes"/>
      <point x="338" y="380"/>
      <point x="366" y="329"/>
      <point x="366" y="242" type="curve" smooth="yes"/>
      <point x="366" y="158"/>
      <point x="340" y="123"/>
      <point x="289" y="123" type="curve" smooth="yes"/>
      <point x="241" y="123"/>
      <point x="221" y="154"/>
      <point x="221" y="191" type="curve" smooth="yes"/>
      <point x="221" y="200" type="line"/>
      <point x="300" y="200" type="line"/>
      <point x="300" y="310" type="line"/>
      <point x="40" y="310" type="line"/>
      <point x="36" y="283"/>
      <point x="34" y="233"/>
      <point x="34" y="210" type="curve" smooth="yes"/>
      <point x="34" y="68"/>
      <point x="115" y="-15"/>
    </contour>
  </outline>
</glyph>
<glyph name="hoNokhuk-thai" format="2">
  <advance width="607"/>
  <unicode hex="0E2E"/>
  <anchor x="497" y="0" name="bottom"/>
  <anchor x="521" y="506" name="top"/>
  <outline>
    <contour>
      <point x="288" y="-15" type="curve" smooth="yes"/>
      <point x="479" y="-15"/>
      <point x="564" y="85"/>
      <point x="564" y="245" type="curve" smooth="yes"/>
      <point x="564" y="350"/>
      <point x="528" y="415"/>
      <point x="458" y="446" type="curve"/>
      <point x="421" y="509"/>
      <point x="352" y="532"/>
      <point x="273" y="532" type="curve" smooth="yes"/>
      <point x="206" y="532"/>
      <point x="113" y="517"/>
      <point x="67" y="493" type="curve"/>
      <point x="67" y="339" type="line"/>
      <point x="104" y="358"/>
      <point x="177" y="380"/>
      <point x="240" y="380" type="curve" smooth="yes"/>
      <point x="328" y="380"/>
      <point x="366" y="337"/>
      <point x="366" y="238" type="curve" smooth="yes"/>
      <point x="366" y="158"/>
      <point x="339" y="123"/>
      <point x="289" y="123" type="curve" smooth="yes"/>
      <point x="241" y="123"/>
      <point x="221" y="154"/>
      <point x="221" y="191" type="curve" smooth="yes"/>
      <point x="221" y="200" type="line"/>
      <point x="300" y="200" type="line"/>
      <point x="300" y="310" type="line"/>
      <point x="40" y="310" type="line"/>
      <point x="36" y="283"/>
      <point x="34" y="233"/>
      <point x="34" y="210" type="curve" smooth="yes"/>
      <point x="34" y="68"/>
      <point x="116" y="-15"/>
    </contour>
    <contour>
      <point x="452" y="386" type="line"/>
      <point x="560" y="423"/>
      <point x="586" y="493"/>
      <point x="586" y="551" type="curve"/>
      <point x="441" y="551" type="line"/>
      <point x="445" y="521"/>
      <point x="424" y="494"/>
      <point x="368" y="472" type="curve"/>
    </contour>
  </outline>
</glyph>
<glyph name="paiyannoi-thai" format="2">
  <advance width="546"/>
  <unicode hex="0E2F"/>
  <outline>
    <contour>
      <point x="301" y="0" type="line"/>
      <point x="493" y="0" type="line"/>
      <point x="493" y="517" type="line"/>
      <point x="301" y="517" type="line"/>
      <point x="301" y="383" type="line" smooth="yes"/>
      <point x="301" y="350"/>
      <point x="281" y="331"/>
      <point x="241" y="331" type="curve" smooth="yes"/>
      <point x="202" y="331"/>
      <point x="182" y="348"/>
      <point x="182" y="371" type="curve" smooth="yes"/>
      <point x="182" y="394"/>
      <point x="201" y="405"/>
      <point x="224" y="405" type="curve" smooth="yes"/>
      <point x="229" y="405"/>
      <point x="236" y="405"/>
      <point x="246" y="402" type="curve"/>
      <point x="255" y="515" type="line"/>
      <point x="226" y="524"/>
      <point x="198" y="526"/>
      <point x="178" y="526" type="curve" smooth="yes"/>
      <point x="69" y="526"/>
      <point x="5" y="464"/>
      <point x="5" y="363" type="curve" smooth="yes"/>
      <point x="5" y="243"/>
      <point x="96" y="189"/>
      <point x="190" y="189" type="curve" smooth="yes"/>
      <point x="278" y="189"/>
      <point x="338" y="231"/>
      <point x="339" y="297" type="curve"/>
      <point x="301" y="293" type="line"/>
    </contour>
  </outline>
</glyph>
<glyph name="saraA-thai" format="2">
  <advance width="366"/>
  <unicode hex="0E30"/>
  <outline>
    <contour>
      <point x="169" y="309" type="curve" smooth="yes"/>
      <point x="321" y="309" type="line"/>
      <point x="321" y="428" type="line"/>
      <point x="227" y="428" type="line" smooth="yes"/>
      <point x="199" y="428"/>
      <point x="189" y="436"/>
      <point x="189" y="455" type="curve" smooth="yes"/>
      <point x="189" y="466"/>
      <point x="190" y="475"/>
      <point x="193" y="486" type="curve"/>
      <point x="60" y="502" type="line"/>
      <point x="45" y="472"/>
      <point x="37" y="445"/>
      <point x="37" y="419" type="curve" smooth="yes"/>
      <point x="37" y="361"/>
      <point x="70" y="309"/>
    </contour>
    <contour>
      <point x="169" y="29" type="curve" smooth="yes"/>
      <point x="321" y="29" type="line"/>
      <point x="321" y="148" type="line"/>
      <point x="227" y="148" type="line" smooth="yes"/>
      <point x="199" y="148"/>
      <point x="189" y="156"/>
      <point x="189" y="175" type="curve" smooth="yes"/>
      <point x="189" y="186"/>
      <point x="190" y="195"/>
      <point x="193" y="206" type="curve"/>
      <point x="60" y="222" type="line"/>
      <point x="45" y="192"/>
      <point x="37" y="165"/>
      <point x="37" y="139" type="curve" smooth="yes"/>
      <point x="37" y="81"/>
      <point x="70" y="29"/>
    </contour>
  </outline>
</glyph>
<glyph name="maiHanaKat-thai" format="2">
  <unicode hex="0E31"/>
  <anchor x="-68" y="506" name="_top"/>
  <anchor x="-68" y="722" name="top"/>
  <outline>
    <contour>
      <point x="-229" y="602" type="curve" smooth="yes"/>
      <point x="22" y="602" type="line"/>
      <point x="22" y="719" type="line"/>
      <point x="-172" y="719" type="line" smooth="yes"/>
      <point x="-200" y="719"/>
      <point x="-210" y="727"/>
      <point x="-210" y="746" type="curve" smooth="yes"/>
      <point x="-210" y="752"/>
      <point x="-209" y="761"/>
      <point x="-206" y="772" type="curve"/>
      <point x="-339" y="788" type="line"/>
      <point x="-354" y="758"/>
      <point x="-362" y="731"/>
      <point x="-362" y="705" type="curve" smooth="yes"/>
      <point x="-362" y="654"/>
      <point x="-332" y="602"/>
    </contour>
  </outline>
</glyph>
<glyph name="saraAa-thai" format="2">
  <advance width="455"/>
  <unicode hex="0E32"/>
  <outline>
    <contour>
      <point x="207" y="0" type="line"/>
      <point x="399" y="0" type="line"/>
      <point x="399" y="355" type="line" smooth="yes"/>
      <point x="399" y="492"/>
      <point x="312" y="532"/>
      <point x="196" y="532" type="curve" smooth="yes"/>
      <point x="124" y="532"/>
      <point x="64" y="516"/>
      <point x="35" y="503" type="curve"/>
      <point x="35" y="357" type="line"/>
      <point x="61" y="369"/>
      <point x="95" y="382"/>
      <point x="135" y="382" type="curve" smooth="yes"/>
      <point x="182" y="382"/>
      <point x="207" y="364"/>
      <point x="207" y="319" type="curve" smooth="yes"/>
    </contour>
  </outline>
</glyph>
<glyph name="saraI-thai" format="2">
  <unicode hex="0E34"/>
  <anchor x="-68" y="506" name="_top"/>
  <anchor x="-68" y="698" name="top"/>
  <outline>
    <contour>
      <point x="-553" y="603" type="line"/>
      <point x="-68" y="603" type="line"/>
      <point x="-68" y="732" type="line"/>
      <point x="-433" y="732" type="line"/>
      <point x="-553" y="682" type="line"/>
    </contour>
  </outline>
</glyph>
<glyph name="saraIi-thai" format="2">
  <unicode hex="0E35"/>
  <anchor x="-68" y="506" name="_top"/>
  <anchor x="-68" y="742" name="top"/>
  <outline>
    <contour>
      <point x="-553" y="603" type="line"/>
      <point x="-68" y="603" type="line"/>
      <point x="-68" y="732" type="line"/>
      <point x="-433" y="732" type="line"/>
      <point x="-553" y="682" type="line"/>
    </contour>
    <contour>
      <point x="-228" y="680" type="line"/>
      <point x="-68" y="680" type="line"/>
      <point x="-68" y="793" type="line"/>
      <point x="-228" y="793" type="line"/>
    </contour>
  </outline>
</glyph>
<glyph name="saraUe-thai" format="2">
  <unicode hex="0E36"/>
  <anchor x="-68" y="506" name="_top"/>
  <anchor x="-68" y="742" name="top"/>
  <outline>
    <contour>
      <point x="-553" y="603" type="line"/>
      <point x="-150" y="603" type="line" smooth="yes"/>
      <point x="-73" y="603"/>
      <point x="-38" y="646"/>
      <point x="-38" y="704" type="curve" smooth="yes"/>
      <point x="-38" y="762"/>
      <point x="-79" y="805"/>
      <point x="-149" y="805" type="curve" smooth="yes"/>
      <point x="-216" y="805"/>
      <point x="-256" y="766"/>
      <point x="-256" y="717" type="curve" smooth="yes"/>
      <point x="-256" y="706"/>
      <point x="-254" y="695"/>
      <point x="-250" y="683" type="curve"/>
      <point x="-212" y="732" type="line"/>
      <point x="-433" y="732" type="line"/>
      <point x="-553" y="682" type="line"/>
    </contour>
    <contour>
      <point x="-150" y="663" type="curve" smooth="yes"/>
      <point x="-180" y="663"/>
      <point x="-195" y="682"/>
      <point x="-195" y="704" type="curve" smooth="yes"/>
      <point x="-195" y="726"/>
      <point x="-179" y="743"/>
      <point x="-152" y="743" type="curve" smooth="yes"/>
      <point x="-124" y="743"/>
      <point x="-108" y="726"/>
      <point x="-108" y="702" type="curve" smooth="yes"/>
      <point x="-108" y="680"/>
      <point x="-122" y="663"/>
    </contour>
  </outline>
</glyph>
<glyph name="saraUee-thai" format="2">
  <unicode hex="0E37"/>
  <anchor x="-68" y="506" name="_top"/>
  <anchor x="-108" y="742" name="top"/>
  <outline>
    <contour>
      <point x="-552" y="603" type="line"/>
      <point x="-68" y="603" type="line"/>
      <point x="-68" y="732" type="line"/>
      <point x="-432" y="732" type="line"/>
      <point x="-552" y="682" type="line"/>
    </contour>
    <contour>
      <point x="-338" y="680" type="line"/>
      <point x="-228" y="680" type="line"/>
      <point x="-228" y="793" type="line"/>
      <point x="-338" y="793" type="line"/>
    </contour>
    <contour>
      <point x="-178" y="680" type="line"/>
      <point x="-68" y="680" type="line"/>
      <point x="-68" y="793" type="line"/>
      <point x="-178" y="793" type="line"/>
    </contour>
  </outline>
</glyph>
<glyph name="phinthu-thai" format="2">
  <unicode hex="0E3A"/>
  <anchor x="-68" y="0" name="_bottom"/>
  <anchor x="-68" y="-233" name="bottom"/>
  <outline>
    <contour>
      <point x="-156" y="-216" type="curve" smooth="yes"/>
      <point x="-100" y="-216"/>
      <point x="-68" y="-186"/>
      <point x="-68" y="-131" type="curve" smooth="yes"/>
      <point x="-68" y="-76"/>
      <point x="-100" y="-46"/>
      <point x="-156" y="-46" type="curve" smooth="yes"/>
      <point x="-212" y="-46"/>
      <point x="-244" y="-76"/>
      <point x="-244" y="-131" type="curve" smooth="yes"/>
      <point x="-244" y="-186"/>
      <point x="-212" y="-216"/>
    </contour>
  </outline>
</glyph>
<glyph name="saraE-thai" format="2">
  <advance width="360"/>
  <unicode hex="0E40"/>
  <outline>
    <contour>
      <point x="230" y="-10" type="curve" smooth="yes"/>
      <point x="276" y="-10"/>
      <point x="314" y="1"/>
      <point x="339" y="13" type="curve"/>
      <point x="324" y="129" type="line"/>
      <point x="314" y="125"/>
      <point x="302" y="124"/>
      <point x="293" y="124" type="curve" smooth="yes"/>
      <point x="273" y="124"/>
      <point x="264" y="135"/>
      <point x="264" y="154" type="curve" smooth="yes"/>
      <point x="264" y="517" type="line"/>
      <point x="72" y="517" type="line"/>
      <point x="72" y="131" type="line" smooth="yes"/>
      <point x="72" y="45"/>
      <point x="117" y="-10"/>
    </contour>
  </outline>
</glyph>
<glyph name="saraO-thai" format="2">
  <advance width="370"/>
  <unicode hex="0E42"/>
  <outline>
    <contour>
      <point x="94" y="422" type="line"/>
      <point x="286" y="422" type="line"/>
      <point x="286" y="548" type="line" smooth="yes"/>
      <point x="286" y="606"/>
      <point x="275" y="630"/>
      <point x="236" y="650" type="curve"/>
      <point x="237" y="654" type="line"/>
      <point x="379" y="654" type="line"/>
      <point x="379" y="788" type="line"/>
      <point x="135" y="788" type="line"/>
      <point x="16" y="729" type="line"/>
      <point x="16" y="654" type="line"/>
      <point x="73" y="654"/>
      <point x="94" y="624"/>
      <point x="94" y="548" type="curve" smooth="yes"/>
    </contour>
    <component base="saraE-thai" xOffset="22"/>
  </outline>
</glyph>
<glyph name="saraAiMaimuan-thai" format="2">
  <advance width="360"/>
  <unicode hex="0E43"/>
  <outline>
    <contour>
      <point x="236" y="-10" type="curve" smooth="yes"/>
      <point x="282" y="-10"/>
      <point x="321" y="1"/>
      <point x="346" y="13" type="curve"/>
      <point x="331" y="129" type="line"/>
      <point x="321" y="125"/>
      <point x="308" y="124"/>
      <point x="300" y="124" type="curve" smooth="yes"/>
      <point x="279" y="124"/>
      <point x="271" y="135"/>
      <point x="271" y="154" type="curve" smooth="yes"/>
      <point x="271" y="457" type="line" smooth="yes"/>
      <point x="271" y="503"/>
      <point x="288" y="514"/>
      <point x="320" y="556" type="curve" smooth="yes"/>
      <point x="341" y="584"/>
      <point x="365" y="620"/>
      <point x="365" y="671" type="curve" smooth="yes"/>
      <point x="365" y="762"/>
      <point x="293" y="806"/>
      <point x="179" y="806" type="curve" smooth="yes"/>
      <point x="98" y="806"/>
      <point x="38" y="784"/>
      <point x="20" y="774" type="curve"/>
      <point x="20" y="641" type="line"/>
      <point x="42" y="656"/>
      <point x="66" y="662"/>
      <point x="97" y="662" type="curve" smooth="yes"/>
      <point x="143" y="662"/>
      <point x="162" y="646"/>
      <point x="162" y="622" type="curve" smooth="yes"/>
      <point x="162" y="596"/>
      <point x="140" y="580"/>
      <point x="120" y="559" type="curve" smooth="yes"/>
      <point x="87" y="524"/>
      <point x="79" y="508"/>
      <point x="79" y="463" type="curve" smooth="yes"/>
      <point x="79" y="131" type="line" smooth="yes"/>
      <point x="79" y="45"/>
      <point x="123" y="-10"/>
    </contour>
  </outline>
</glyph>
<glyph name="saraAiMaimalai-thai" format="2">
  <advance width="367"/>
  <unicode hex="0E44"/>
  <outline>
    <contour>
      <point x="97" y="422" type="line"/>
      <point x="289" y="422" type="line"/>
      <point x="289" y="548" type="line" smooth="yes"/>
      <point x="289" y="629"/>
      <point x="330" y="654"/>
      <point x="378" y="654" type="curve"/>
      <point x="378" y="788" type="line"/>
      <point x="38" y="788" type="line"/>
      <point x="7" y="654" type="line"/>
      <point x="146" y="654" type="line"/>
      <point x="147" y="650" type="line"/>
      <point x="121" y="632"/>
      <point x="97" y="614"/>
      <point x="97" y="548" type="curve" smooth="yes"/>
    </contour>
    <component base="saraE-thai" xOffset="25"/>
  </outline>
</glyph>
<glyph name="lakkhangyao-thai" format="2">
  <advance width="455"/>
  <unicode hex="0E45"/>
  <outline>
    <contour>
      <point x="207" y="-210" type="line"/>
      <point x="399" y="-210" type="line"/>
      <point x="399" y="94" type="line"/>
      <point x="207" y="94" type="line"/>
    </contour>
    <component base="saraAa-thai"/>
  </outline>
</glyph>
<glyph name="maiyamok-thai" format="2">
  <advance width="652"/>
  <unicode hex="0E46"/>
  <outline>
    <contour>
      <point x="404" y="-210" type="line"/>
      <point x="596" y="-210" type="line"/>
      <point x="596" y="372" type="line" smooth="yes"/>
      <point x="596" y="504"/>
      <point x="528" y="532"/>
      <point x="447" y="532" type="curve" smooth="yes"/>
      <point x="388" y="532"/>
      <point x="348" y="516"/>
      <point x="328" y="482" type="curve"/>
      <point x="324" y="482" type="line"/>
      <point x="304" y="516"/>
      <point x="263" y="532"/>
      <point x="208" y="532" type="curve" smooth="yes"/>
      <point x="111" y="532"/>
      <point x="44" y="481"/>
      <point x="44" y="351" type="curve" smooth="yes"/>
      <point x="44" y="222"/>
      <point x="111" y="165"/>
      <point x="207" y="165" type="curve" smooth="yes"/>
      <point x="256" y="165"/>
      <point x="292" y="181"/>
      <point x="310" y="198" type="curve"/>
      <point x="279" y="310" type="line"/>
      <point x="271" y="307"/>
      <point x="262" y="305"/>
      <point x="253" y="305" type="curve" smooth="yes"/>
      <point x="227" y="305"/>
      <point x="216" y="318"/>
      <point x="216" y="353" type="curve" smooth="yes"/>
      <point x="216" y="389"/>
      <point x="226" y="403"/>
      <point x="248" y="403" type="curve" smooth="yes"/>
      <point x="266" y="403"/>
      <point x="277" y="393"/>
      <point x="277" y="371" type="curve" smooth="yes"/>
      <point x="277" y="348" type="line"/>
      <point x="344" y="348" type="line"/>
      <point x="344" y="371" type="line" smooth="yes"/>
      <point x="344" y="393"/>
      <point x="354" y="403"/>
      <point x="374" y="403" type="curve" smooth="yes"/>
      <point x="393" y="403"/>
      <point x="404" y="393"/>
      <point x="404" y="371" type="curve" smooth="yes"/>
    </contour>
  </outline>
</glyph>
<glyph name="maitaikhu-thai" format="2">
  <unicode hex="0E47"/>
  <anchor x="-68" y="506" name="_top"/>
  <anchor x="-202" y="815" name="top"/>
  <outline>
    <contour>
      <point x="-204" y="591" type="curve" smooth="yes"/>
      <point x="-139" y="591"/>
      <point x="-97" y="626"/>
      <point x="-97" y="701" type="curve" smooth="yes"/>
      <point x="-97" y="725" type="line"/>
      <point x="-223" y="725" type="line"/>
      <point x="-223" y="709" type="line" smooth="yes"/>
      <point x="-223" y="690"/>
      <point x="-232" y="678"/>
      <point x="-249" y="678" type="curve" smooth="yes"/>
      <point x="-270" y="678"/>
      <point x="-281" y="696"/>
      <point x="-284" y="719" type="curve"/>
      <point x="-306" y="719" type="line"/>
      <point x="-345" y="680" type="line"/>
      <point x="-360" y="680"/>
      <point x="-369" y="696"/>
      <point x="-369" y="718" type="curve" smooth="yes"/>
      <point x="-369" y="748"/>
      <point x="-352" y="762"/>
      <point x="-331" y="762" type="curve" smooth="yes"/>
      <point x="-98" y="762" type="line"/>
      <point x="-98" y="845" type="line"/>
      <point x="-365" y="845" type="line" smooth="yes"/>
      <point x="-433" y="845"/>
      <point x="-496" y="804"/>
      <point x="-496" y="719" type="curve" smooth="yes"/>
      <point x="-496" y="638"/>
      <point x="-438" y="595"/>
      <point x="-347" y="595" type="curve"/>
      <point x="-296" y="636" type="line"/>
      <point x="-278" y="608"/>
      <point x="-248" y="591"/>
    </contour>
  </outline>
</glyph>
<glyph name="maiEk-thai" format="2">
  <unicode hex="0E48"/>
  <anchor x="-68" y="506" name="_top"/>
  <anchor x="-68" y="815" name="top"/>
  <outline>
    <contour>
      <point x="-250" y="602" type="line"/>
      <point x="-78" y="602" type="line"/>
      <point x="-78" y="821" type="line"/>
      <point x="-250" y="821" type="line"/>
    </contour>
  </outline>
</glyph>
<glyph name="maiTho-thai" format="2">
  <unicode hex="0E49"/>
  <anchor x="-58" y="506" name="_top"/>
  <anchor x="-138" y="815" name="top"/>
  <outline>
    <contour>
      <point x="-386" y="602" type="line"/>
      <point x="-58" y="602" type="line"/>
      <point x="-58" y="717" type="line"/>
      <point x="-229" y="717" type="line"/>
      <point x="-229" y="689" type="line"/>
      <point x="-192" y="705"/>
      <point x="-182" y="732"/>
      <point x="-182" y="756" type="curve" smooth="yes"/>
      <point x="-182" y="817"/>
      <point x="-221" y="842"/>
      <point x="-286" y="842" type="curve" smooth="yes"/>
      <point x="-318" y="842"/>
      <point x="-369" y="836"/>
      <point x="-396" y="813" type="curve"/>
      <point x="-377" y="738" type="line"/>
      <point x="-369" y="742"/>
      <point x="-357" y="745"/>
      <point x="-349" y="745" type="curve" smooth="yes"/>
      <point x="-335" y="745"/>
      <point x="-322" y="736"/>
      <point x="-322" y="715" type="curve" smooth="yes"/>
      <point x="-322" y="677"/>
      <point x="-368" y="663"/>
      <point x="-386" y="656" type="curve"/>
    </contour>
  </outline>
</glyph>
<glyph name="maiTri-thai" format="2">
  <unicode hex="0E4A"/>
  <anchor x="-68" y="506" name="_top"/>
  <anchor x="-174" y="815" name="top"/>
  <outline>
    <contour>
      <point x="-352" y="597" type="curve" smooth="yes"/>
      <point x="-329" y="597"/>
      <point x="-298" y="601"/>
      <point x="-287" y="609" type="curve"/>
      <point x="-292" y="685" type="line"/>
      <point x="-300" y="683"/>
      <point x="-304" y="683"/>
      <point x="-309" y="683" type="curve" smooth="yes"/>
      <point x="-327" y="683"/>
      <point x="-337" y="697"/>
      <point x="-337" y="713" type="curve" smooth="yes"/>
      <point x="-337" y="731"/>
      <point x="-325" y="743"/>
      <point x="-314" y="744" type="curve"/>
      <point x="-284" y="727" type="line"/>
      <point x="-280" y="727" type="line"/>
      <point x="-249" y="744" type="line"/>
      <point x="-238" y="743"/>
      <point x="-225" y="733"/>
      <point x="-225" y="713" type="curve" smooth="yes"/>
      <point x="-225" y="694"/>
      <point x="-236" y="686"/>
      <point x="-251" y="681" type="curve"/>
      <point x="-251" y="602" type="line"/>
      <point x="-28" y="602" type="line"/>
      <point x="-28" y="711" type="line"/>
      <point x="-118" y="711" type="line"/>
      <point x="-115" y="695" type="line"/>
      <point x="-104" y="706"/>
      <point x="-95" y="723"/>
      <point x="-95" y="748" type="curve" smooth="yes"/>
      <point x="-95" y="798"/>
      <point x="-127" y="838"/>
      <point x="-226" y="841" type="curve"/>
      <point x="-283" y="802" type="line"/>
      <point x="-350" y="841" type="line"/>
      <point x="-425" y="839"/>
      <point x="-473" y="791"/>
      <point x="-473" y="717" type="curve" smooth="yes"/>
      <point x="-473" y="643"/>
      <point x="-428" y="597"/>
    </contour>
  </outline>
</glyph>
<glyph name="maiChattawa-thai" format="2">
  <unicode hex="0E4B"/>
  <anchor x="-68" y="506" name="_top"/>
  <anchor x="-75" y="815" name="top"/>
  <outline>
    <contour>
      <point x="-247" y="602" type="line"/>
      <point x="-95" y="602" type="line"/>
      <point x="-95" y="841" type="line"/>
      <point x="-247" y="841" type="line"/>
    </contour>
    <contour>
      <point x="-312" y="671" type="line"/>
      <point x="-30" y="671" type="line"/>
      <point x="-30" y="773" type="line"/>
      <point x="-312" y="773" type="line"/>
    </contour>
  </outline>
</glyph>
<glyph name="thanthakhat-thai" format="2">
  <unicode hex="0E4C"/>
  <anchor x="-68" y="506" name="_top"/>
  <anchor x="-68" y="741" name="top"/>
  <outline>
    <contour>
      <point x="-270" y="580" type="curve"/>
      <point x="-125" y="604" type="line"/>
      <point x="-130" y="614"/>
      <point x="-133" y="624"/>
      <point x="-133" y="634" type="curve" smooth="yes"/>
      <point x="-133" y="655"/>
      <point x="-119" y="662"/>
      <point x="-94" y="662" type="curve" smooth="yes"/>
      <point x="-8" y="662" type="line"/>
      <point x="-8" y="786" type="line"/>
      <point x="-161" y="786" type="line" smooth="yes"/>
      <point x="-261" y="786"/>
      <point x="-292" y="736"/>
      <point x="-292" y="671" type="curve" smooth="yes"/>
      <point x="-292" y="636"/>
      <point x="-283" y="602"/>
    </contour>
  </outline>
</glyph>
<glyph name="nikhahit-thai" format="2">
  <unicode hex="0E4D"/>
  <anchor x="-68" y="506" name="_top"/>
  <anchor x="-93" y="742" name="top"/>
  <outline>
    <contour>
      <point x="-186" y="586" type="curve" smooth="yes"/>
      <point x="-102" y="586"/>
      <point x="-48" y="624"/>
      <point x="-48" y="691" type="curve" smooth="yes"/>
      <point x="-48" y="758"/>
      <point x="-102" y="796"/>
      <point x="-186" y="796" type="curve" smooth="yes"/>
      <point x="-269" y="796"/>
      <point x="-323" y="758"/>
      <point x="-323" y="691" type="curve" smooth="yes"/>
      <point x="-323" y="624"/>
      <point x="-269" y="586"/>
    </contour>
    <contour>
      <point x="-186" y="652" type="curve" smooth="yes"/>
      <point x="-213" y="652"/>
      <point x="-229" y="667"/>
      <point x="-229" y="691" type="curve" smooth="yes"/>
      <point x="-229" y="715"/>
      <point x="-213" y="730"/>
      <point x="-186" y="730" type="curve" smooth="yes"/>
      <point x="-158" y="730"/>
      <point x="-142" y="715"/>
      <point x="-142" y="691" type="curve" smooth="yes"/>
      <point x="-142" y="667"/>
      <point x="-158" y="652"/>
    </contour>
  </outline>
</glyph>
<glyph name="yamakkan-thai" format="2">
  <unicode hex="0E4E"/>
  <anchor x="-68" y="506" name="_top"/>
  <anchor x="-68" y="741" name="top"/>
  <outline>
    <contour>
      <point x="-285" y="581" type="curve"/>
      <point x="-170" y="600" type="line"/>
      <point x="-173" y="606"/>
      <point x="-175" y="611"/>
      <point x="-175" y="618" type="curve" smooth="yes"/>
      <point x="-175" y="632"/>
      <point x="-167" y="644"/>
      <point x="-147" y="644" type="curve" smooth="yes"/>
      <point x="-139" y="644"/>
      <point x="-127" y="642"/>
      <point x="-118" y="635" type="curve"/>
      <point x="-75" y="665" type="line"/>
      <point x="-81" y="673"/>
      <point x="-82" y="681"/>
      <point x="-82" y="688" type="curve" smooth="yes"/>
      <point x="-82" y="710"/>
      <point x="-63" y="720"/>
      <point x="-42" y="720" type="curve" smooth="yes"/>
      <point x="-31" y="720"/>
      <point x="-16" y="718"/>
      <point x="-7" y="714" type="curve"/>
      <point x="-7" y="791" type="line"/>
      <point x="-27" y="800"/>
      <point x="-56" y="803"/>
      <point x="-75" y="803" type="curve" smooth="yes"/>
      <point x="-126" y="803"/>
      <point x="-172" y="781"/>
      <point x="-172" y="729" type="curve" smooth="yes"/>
      <point x="-172" y="716"/>
      <point x="-169" y="696"/>
      <point x="-158" y="685" type="curve"/>
      <point x="-142" y="696" type="line"/>
      <point x="-158" y="708"/>
      <point x="-174" y="718"/>
      <point x="-207" y="718" type="curve" smooth="yes"/>
      <point x="-260" y="718"/>
      <point x="-302" y="692"/>
      <point x="-302" y="636" type="curve" smooth="yes"/>
      <point x="-302" y="613"/>
      <point x="-295" y="595"/>
    </contour>
  </outline>
</glyph>
<glyph name="zero-thai" format="2">
  <advance width="563"/>
  <unicode hex="0E50"/>
  <outline>
    <contour>
      <point x="281" y="-15" type="curve" smooth="yes"/>
      <point x="441" y="-15"/>
      <point x="527" y="80"/>
      <point x="527" y="228" type="curve" smooth="yes"/>
      <point x="527" y="382"/>
      <point x="441" y="470"/>
      <point x="281" y="470" type="curve" smooth="yes"/>
      <point x="122" y="470"/>
      <point x="36" y="382"/>
      <point x="36" y="228" type="curve" smooth="yes"/>
      <point x="36" y="80"/>
      <point x="122" y="-15"/>
    </contour>
    <contour>
      <point x="281" y="126" type="curve" smooth="yes"/>
      <point x="237" y="126"/>
      <point x="218" y="158"/>
      <point x="218" y="228" type="curve" smooth="yes"/>
      <point x="218" y="301"/>
      <point x="237" y="329"/>
      <point x="281" y="329" type="curve" smooth="yes"/>
      <point x="326" y="329"/>
      <point x="345" y="301"/>
      <point x="345" y="228" type="curve" smooth="yes"/>
      <point x="345" y="158"/>
      <point x="326" y="126"/>
    </contour>
  </outline>
</glyph>
<glyph name="two-thai" format="2">
  <advance width="663"/>
  <unicode hex="0E52"/>
  <outline>
    <contour>
      <point x="338" y="-15" type="curve" smooth="yes"/>
      <point x="547" y="-15"/>
      <point x="617" y="74"/>
      <point x="617" y="217" type="curve" smooth="yes"/>
      <point x="617" y="352" type="line" smooth="yes"/>
      <point x="617" y="431"/>
      <point x="571" y="465"/>
      <point x="506" y="465" type="curve" smooth="yes"/>
      <point x="462" y="465"/>
      <point x="433" y="450"/>
      <point x="422" y="426" type="curve"/>
      <point x="419" y="426" type="line"/>
      <point x="409" y="452"/>
      <point x="382" y="465"/>
      <point x="347" y="465" type="curve" smooth="yes"/>
      <point x="272" y="465"/>
      <point x="243" y="407"/>
      <point x="243" y="326" type="curve" smooth="yes"/>
      <point x="243" y="223"/>
      <point x="300" y="182"/>
      <point x="364" y="182" type="curve" smooth="yes"/>
      <point x="392" y="182"/>
      <point x="415" y="190"/>
      <point x="430" y="201" type="curve"/>
      <point x="405" y="284" type="line"/>
      <point x="396" y="280"/>
      <point x="388" y="278"/>
      <point x="382" y="278" type="curve" smooth="yes"/>
      <point x="368" y="278"/>
      <point x="362" y="291"/>
      <point x="362" y="320" type="curve" smooth="yes"/>
      <point x="362" y="343"/>
      <point x="366" y="359"/>
      <point x="378" y="359" type="curve" smooth="yes"/>
      <point x="389" y="359"/>
      <point x="392" y="347"/>
      <point x="394" y="330" type="curve"/>
      <point x="422" y="330" type="line"/>
      <point x="424" y="349"/>
      <point x="428" y="359"/>
      <point x="439" y="359" type="curve" smooth="yes"/>
      <point x="449" y="359"/>
      <point x="453" y="349"/>
      <point x="453" y="336" type="curve" smooth="yes"/>
      <point x="453" y="234" type="line" smooth="yes"/>
      <point x="453" y="156"/>
      <point x="418" y="123"/>
      <point x="342" y="123" type="curve" smooth="yes"/>
      <point x="264" y="123"/>
      <point x="224" y="158"/>
      <point x="224" y="230" type="curve" smooth="yes"/>
      <point x="224" y="584" type="line"/>
      <point x="46" y="584" type="line"/>
      <point x="46" y="213" type="line" smooth="yes"/>
      <point x="46" y="72"/>
      <point x="131" y="-15"/>
    </contour>
  </outline>
</glyph>
<glyph name="three-thai" format="2">
  <advance width="568"/>
  <unicode hex="0E53"/>
  <outline>
    <contour>
      <point x="205" y="-10" type="curve" smooth="yes"/>
      <point x="244" y="-10"/>
      <point x="283" y="-4"/>
      <point x="305" y="4" type="curve"/>
      <point x="284" y="124" type="line"/>
      <point x="279" y="121"/>
      <point x="272" y="120"/>
      <point x="267" y="120" type="curve" smooth="yes"/>
      <point x="231" y="120"/>
      <point x="218" y="155"/>
      <point x="218" y="233" type="curve" smooth="yes"/>
      <point x="218" y="293"/>
      <point x="226" y="318"/>
      <point x="243" y="318" type="curve" smooth="yes"/>
      <point x="249" y="318"/>
      <point x="257" y="314"/>
      <point x="259" y="284" type="curve"/>
      <point x="309" y="284" type="line"/>
      <point x="311" y="312"/>
      <point x="316" y="318"/>
      <point x="326" y="318" type="curve" smooth="yes"/>
      <point x="335" y="318"/>
      <point x="342" y="312"/>
      <point x="342" y="286" type="curve" smooth="yes"/>
      <point x="342" y="0" type="line"/>
      <point x="522" y="0" type="line"/>
      <point x="522" y="324" type="line" smooth="yes"/>
      <point x="522" y="413"/>
      <point x="485" y="465"/>
      <point x="399" y="465" type="curve" smooth="yes"/>
      <point x="358" y="465"/>
      <point x="301" y="453"/>
      <point x="287" y="409" type="curve"/>
      <point x="284" y="409" type="line"/>
      <point x="254" y="456"/>
      <point x="220" y="465"/>
      <point x="184" y="465" type="curve" smooth="yes"/>
      <point x="84" y="465"/>
      <point x="36" y="398"/>
      <point x="36" y="232" type="curve" smooth="yes"/>
      <point x="36" y="82"/>
      <point x="81" y="-10"/>
    </contour>
  </outline>
</glyph>
<glyph name="four-thai" format="2">
  <advance width="534"/>
  <unicode hex="0E54"/>
  <outline>
    <contour>
      <point x="253" y="0" type="curve" smooth="yes"/>
      <point x="488" y="0" type="line"/>
      <point x="488" y="129" type="line"/>
      <point x="463" y="129" type="line" smooth="yes"/>
      <point x="432" y="129"/>
      <point x="415" y="141"/>
      <point x="415" y="163" type="curve" smooth="yes"/>
      <point x="415" y="181"/>
      <point x="426" y="192"/>
      <point x="445" y="192" type="curve" smooth="yes"/>
      <point x="449" y="192"/>
      <point x="457" y="192"/>
      <point x="462" y="190" type="curve"/>
      <point x="480" y="281" type="line"/>
      <point x="460" y="292"/>
      <point x="432" y="298"/>
      <point x="397" y="298" type="curve" smooth="yes"/>
      <point x="312" y="298"/>
      <point x="272" y="264"/>
      <point x="272" y="200" type="curve" smooth="yes"/>
      <point x="272" y="167"/>
      <point x="282" y="130"/>
      <point x="296" y="118" type="curve"/>
      <point x="306" y="128" type="line"/>
      <point x="279" y="128" type="line" smooth="yes"/>
      <point x="239" y="128"/>
      <point x="218" y="155"/>
      <point x="218" y="217" type="curve" smooth="yes"/>
      <point x="218" y="289"/>
      <point x="246" y="332"/>
      <point x="324" y="332" type="curve" smooth="yes"/>
      <point x="346" y="332" type="line" smooth="yes"/>
      <point x="435" y="332"/>
      <point x="484" y="382"/>
      <point x="484" y="463" type="curve" smooth="yes"/>
      <point x="484" y="584" type="line"/>
      <point x="320" y="584" type="line"/>
      <point x="320" y="513" type="line" smooth="yes"/>
      <point x="320" y="478"/>
      <point x="302" y="460"/>
      <point x="260" y="460" type="curve" smooth="yes"/>
      <point x="224" y="460" type="line" smooth="yes"/>
      <point x="88" y="460"/>
      <point x="36" y="355"/>
      <point x="36" y="224" type="curve" smooth="yes"/>
      <point x="36" y="74"/>
      <point x="104" y="0"/>
    </contour>
  </outline>
</glyph>
<glyph name="seven-thai" format="2">
  <advance width="769"/>
  <unicode hex="0E57"/>
  <outline>
    <contour>
      <point x="209" y="-10" type="curve" smooth="yes"/>
      <point x="242" y="-10"/>
      <point x="283" y="-4"/>
      <point x="305" y="4" type="curve"/>
      <point x="284" y="124" type="line"/>
      <point x="279" y="121"/>
      <point x="272" y="120"/>
      <point x="266" y="120" type="curve" smooth="yes"/>
      <point x="231" y="120"/>
      <point x="218" y="156"/>
      <point x="218" y="233" type="curve" smooth="yes"/>
      <point x="218" y="293"/>
      <point x="226" y="318"/>
      <point x="243" y="318" type="curve" smooth="yes"/>
      <point x="249" y="318"/>
      <point x="257" y="314"/>
      <point x="259" y="284" type="curve"/>
      <point x="299" y="284" type="line"/>
      <point x="301" y="312"/>
      <point x="306" y="318"/>
      <point x="316" y="318" type="curve" smooth="yes"/>
      <point x="325" y="318"/>
      <point x="332" y="312"/>
      <point x="332" y="286" type="curve" smooth="yes"/>
      <point x="332" y="0" type="line"/>
      <point x="489" y="0" type="line" smooth="yes"/>
      <point x="593" y="0"/>
      <point x="728" y="42"/>
      <point x="728" y="238" type="curve" smooth="yes"/>
      <point x="728" y="584" type="line"/>
      <point x="554" y="584" type="line"/>
      <point x="554" y="215" type="line" smooth="yes"/>
      <point x="554" y="133"/>
      <point x="532" y="122"/>
      <point x="496" y="122" type="curve"/>
      <point x="496" y="356" type="line" smooth="yes"/>
      <point x="496" y="426"/>
      <point x="459" y="465"/>
      <point x="388" y="465" type="curve" smooth="yes"/>
      <point x="354" y="465"/>
      <point x="302" y="456"/>
      <point x="282" y="409" type="curve"/>
      <point x="279" y="409" type="line"/>
      <point x="254" y="456"/>
      <point x="220" y="465"/>
      <point x="184" y="465" type="curve" smooth="yes"/>
      <point x="85" y="465"/>
      <point x="36" y="398"/>
      <point x="36" y="235" type="curve" smooth="yes"/>
      <point x="36" y="78"/>
      <point x="81" y="-10"/>
    </contour>
  </outline>
</glyph>
<glyph name="eight-thai" format="2">
  <advance width="565"/>
  <unicode hex="0E58"/>
  <outline>
    <contour>
      <point x="382" y="-15" type="curve" smooth="yes"/>
      <point x="475" y="-15"/>
      <point x="529" y="41"/>
      <point x="529" y="147" type="curve" smooth="yes"/>
      <point x="529" y="206"/>
      <point x="512" y="254"/>
      <point x="464" y="292" type="curve"/>
      <point x="363" y="219" type="line"/>
      <point x="369" y="211"/>
      <point x="381" y="192"/>
      <point x="381" y="173" type="curve" smooth="yes"/>
      <point x="381" y="150"/>
      <point x="368" y="135"/>
      <point x="344" y="135" type="curve" smooth="yes"/>
      <point x="320" y="135"/>
      <point x="306" y="150"/>
      <point x="306" y="187" type="curve"/>
      <point x="272" y="187" type="line"/>
      <point x="248" y="147" type="line"/>
      <point x="230" y="151"/>
      <point x="203" y="175"/>
      <point x="203" y="231" type="curve" smooth="yes"/>
      <point x="203" y="294"/>
      <point x="236" y="332"/>
      <point x="293" y="332" type="curve" smooth="yes"/>
      <point x="360" y="332" type="line" smooth="yes"/>
      <point x="449" y="332"/>
      <point x="498" y="382"/>
      <point x="498" y="463" type="curve" smooth="yes"/>
      <point x="498" y="584" type="line"/>
      <point x="320" y="584" type="line"/>
      <point x="320" y="508" type="line" smooth="yes"/>
      <point x="320" y="473"/>
      <point x="309" y="460"/>
      <point x="277" y="460" type="curve" smooth="yes"/>
      <point x="253" y="460" type="line" smooth="yes"/>
      <point x="81" y="460"/>
      <point x="36" y="352"/>
      <point x="36" y="219" type="curve" smooth="yes"/>
      <point x="36" y="62"/>
      <point x="98" y="-12"/>
      <point x="218" y="-11" type="curve"/>
      <point x="285" y="76" type="line"/>
      <point x="266" y="76" type="line"/>
      <point x="275" y="12"/>
      <point x="317" y="-15"/>
    </contour>
  </outline>
</glyph>
<glyph name="angkhankhu-thai" format="2">
  <advance width="852"/>
  <unicode hex="0E5A"/>
  <outline>
    <contour>
      <point x="301" y="0" type="line"/>
      <point x="493" y="0" type="line"/>
      <point x="493" y="517" type="line"/>
      <point x="301" y="517" type="line"/>
      <point x="301" y="385" type="line" smooth="yes"/>
      <point x="301" y="350"/>
      <point x="281" y="331"/>
      <point x="241" y="331" type="curve" smooth="yes"/>
      <point x="202" y="331"/>
      <point x="182" y="348"/>
      <point x="182" y="371" type="curve" smooth="yes"/>
      <point x="182" y="395"/>
      <point x="201" y="405"/>
      <point x="224" y="405" type="curve" smooth="yes"/>
      <point x="229" y="405"/>
      <point x="236" y="405"/>
      <point x="246" y="402" type="curve"/>
      <point x="255" y="515" type="line"/>
      <point x="226" y="524"/>
      <point x="198" y="526"/>
      <point x="178" y="526" type="curve" smooth="yes"/>
      <point x="69" y="526"/>
      <point x="5" y="464"/>
      <point x="5" y="363" type="curve" smooth="yes"/>
      <point x="5" y="243"/>
      <point x="96" y="189"/>
      <point x="190" y="189" type="curve" smooth="yes"/>
      <point x="278" y="189"/>
      <point x="338" y="231"/>
      <point x="339" y="295" type="curve"/>
      <point x="301" y="291" type="line"/>
    </contour>
    <contour>
      <point x="607" y="0" type="line"/>
      <point x="799" y="0" type="line"/>
      <point x="799" y="517" type="line"/>
      <point x="607" y="517" type="line"/>
      <point x="607" y="399" type="line" smooth="yes"/>
      <point x="607" y="351"/>
      <point x="575" y="319"/>
      <point x="533" y="319" type="curve" smooth="yes"/>
      <point x="509" y="319"/>
      <point x="483" y="327"/>
      <point x="453" y="353" type="curve"/>
      <point x="408" y="242" type="line"/>
      <point x="442" y="209"/>
      <point x="484" y="192"/>
      <point x="521" y="192" type="curve" smooth="yes"/>
      <point x="584" y="192"/>
      <point x="637" y="233"/>
      <point x="637" y="308" type="curve"/>
      <point x="607" y="304" type="line"/>
    </contour>
  </outline>
</glyph>
<glyph name="doChada-thai.short" format="2">
  <advance width="646"/>
  <anchor x="590" y="-93" name="bottom"/>
  <anchor x="553" y="515" name="top"/>
  <outline>
    <contour>
      <point x="78" y="-127" type="line"/>
      <point x="253" y="-127" type="line"/>
      <point x="253" y="-118" type="line" smooth="yes"/>
      <point x="253" y="-92"/>
      <point x="267" y="-78"/>
      <point x="304" y="-78" type="curve" smooth="yes"/>
      <point x="338" y="-78"/>
      <point x="392" y="-89"/>
      <point x="418" y="-127" type="curve"/>
      <point x="590" y="-127" type="line"/>
      <point x="590" y="321" type="line" smooth="yes"/>
      <point x="590" y="463"/>
      <point x="502" y="541"/>
      <point x="327" y="541" type="curve" smooth="yes"/>
      <point x="147" y="541"/>
      <point x="61" y="459"/>
      <point x="61" y="351" type="curve" smooth="yes"/>
      <point x="61" y="333" type="line"/>
      <point x="165" y="297" type="line"/>
      <point x="164" y="293" type="line"/>
      <point x="112" y="279"/>
      <point x="90" y="243"/>
      <point x="90" y="194" type="curve" smooth="yes"/>
      <point x="90" y="150" type="line" smooth="yes"/>
      <point x="90" y="129"/>
      <point x="80" y="118"/>
      <point x="57" y="118" type="curve" smooth="yes"/>
      <point x="50" y="118"/>
      <point x="44" y="119"/>
      <point x="36" y="122" type="curve"/>
      <point x="19" y="25" type="line"/>
      <point x="43" y="12"/>
      <point x="79" y="1"/>
      <point x="126" y="1" type="curve" smooth="yes"/>
      <point x="214" y="1"/>
      <point x="275" y="38"/>
      <point x="275" y="125" type="curve" smooth="yes"/>
      <point x="275" y="184" type="line" smooth="yes"/>
      <point x="275" y="224"/>
      <point x="283" y="241"/>
      <point x="314" y="242" type="curve"/>
      <point x="326" y="317" type="line"/>
      <point x="259" y="344" type="line"/>
      <point x="262" y="367"/>
      <point x="276" y="389"/>
      <point x="323" y="389" type="curve" smooth="yes"/>
      <point x="378" y="389"/>
      <point x="398" y="359"/>
      <point x="398" y="313" type="curve" smooth="yes"/>
      <point x="398" y="-72" type="line"/>
      <point x="430" y="-61" type="line"/>
      <point x="404" y="-33"/>
      <point x="327" y="-5"/>
      <point x="244" y="-5" type="curve" smooth="yes"/>
      <point x="142" y="-5"/>
      <point x="78" y="-35"/>
      <point x="78" y="-110" type="curve" smooth="yes"/>
    </contour>
  </outline>
</glyph>
<glyph name="loChula-thai.short" format="2">
  <advance width="736"/>
  <anchor x="641" y="0" name="bottom"/>
  <anchor x="661" y="515" name="top"/>
  <outline>
    <contour>
      <point x="77" y="0" type="line"/>
      <point x="290" y="0" type="line"/>
      <point x="326" y="105" type="line" smooth="yes"/>
      <point x="338" y="138"/>
      <point x="350" y="165"/>
      <point x="361" y="219" type="curve"/>
      <point x="365" y="219" type="line"/>
      <point x="375" y="165"/>
      <point x="386" y="139"/>
      <point x="396" y="104" type="curve" smooth="yes"/>
      <point x="428" y="0" type="line"/>
      <point x="641" y="0" type="line"/>
      <point x="687" y="310" type="line" smooth="yes"/>
      <point x="695" y="360"/>
      <point x="680" y="413"/>
      <point x="618" y="432" type="curve"/>
      <point x="618" y="436" type="line"/>
      <point x="697" y="447"/>
      <point x="731" y="494"/>
      <point x="731" y="561" type="curve"/>
      <point x="549" y="561" type="line"/>
      <point x="545" y="522"/>
      <point x="534" y="505"/>
      <point x="481" y="505" type="curve" smooth="yes"/>
      <point x="407" y="505" type="line"/>
      <point x="407" y="393" type="line"/>
      <point x="460" y="393" type="line" smooth="yes"/>
      <point x="504" y="393"/>
      <point x="524" y="375"/>
      <point x="517" y="327" type="curve" smooth="yes"/>
      <point x="507" y="255" type="line" smooth="yes"/>
      <point x="502" y="215"/>
      <point x="497" y="178"/>
      <point x="497" y="137" type="curve"/>
      <point x="493" y="137" type="line"/>
      <point x="480" y="182"/>
      <point x="473" y="224"/>
      <point x="452" y="270" type="curve" smooth="yes"/>
      <point x="413" y="357" type="line"/>
      <point x="304" y="357" type="line"/>
      <point x="270" y="268" type="line" smooth="yes"/>
      <point x="254" y="225"/>
      <point x="240" y="182"/>
      <point x="227" y="136" type="curve"/>
      <point x="223" y="136" type="line"/>
      <point x="228" y="203"/>
      <point x="228" y="271"/>
      <point x="226" y="312" type="curve" smooth="yes"/>
      <point x="216" y="526" type="line"/>
      <point x="19" y="526" type="line"/>
    </contour>
  </outline>
</glyph>
<glyph name="lu-thai.short" format="2">
  <advance width="646"/>
  <anchor x="590" y="-93" name="bottom"/>
  <anchor x="554" y="514" name="top"/>
  <outline>
    <contour>
      <point x="398" y="-127" type="line"/>
      <point x="590" y="-127" type="line"/>
      <point x="590" y="96" type="line"/>
      <point x="398" y="96" type="line"/>
    </contour>
    <component base="phoSamphao-thai"/>
  </outline>
</glyph>
<glyph name="lu_lakkhangyao-thai" format="2">
  <advance width="981"/>
  <outline>
    <contour>
      <point x="398" y="-210" type="line"/>
      <point x="590" y="-210" type="line"/>
      <point x="590" y="299" type="line" smooth="yes"/>
      <point x="590" y="350"/>
      <point x="610" y="380"/>
      <point x="661" y="380" type="curve" smooth="yes"/>
      <point x="713" y="380"/>
      <point x="733" y="349"/>
      <point x="733" y="298" type="curve" smooth="yes"/>
      <point x="733" y="-210" type="line"/>
      <point x="925" y="-210" type="line"/>
      <point x="925" y="326" type="line" smooth="yes"/>
      <point x="925" y="445"/>
      <point x="856" y="532"/>
      <point x="697" y="532" type="curve" smooth="yes"/>
      <point x="605" y="532"/>
      <point x="540" y="501"/>
      <point x="508" y="450" type="curve"/>
      <point x="504" y="450" type="line"/>
      <point x="476" y="502"/>
      <point x="407" y="532"/>
      <point x="319" y="532" type="curve" smooth="yes"/>
      <point x="147" y="532"/>
      <point x="61" y="451"/>
      <point x="61" y="344" type="curve" smooth="yes"/>
      <point x="61" y="326" type="line"/>
      <point x="165" y="291" type="line"/>
      <point x="164" y="287" type="line"/>
      <point x="112" y="274"/>
      <point x="90" y="238"/>
      <point x="90" y="191" type="curve" smooth="yes"/>
      <point x="90" y="138" type="line" smooth="yes"/>
      <point x="90" y="118"/>
      <point x="80" y="108"/>
      <point x="57" y="108" type="curve" smooth="yes"/>
      <point x="50" y="108"/>
      <point x="44" y="109"/>
      <point x="36" y="112" type="curve"/>
      <point x="19" y="15" type="line"/>
      <point x="43" y="2"/>
      <point x="79" y="-10"/>
      <point x="126" y="-10" type="curve" smooth="yes"/>
      <point x="214" y="-10"/>
      <point x="275" y="28"/>
      <point x="275" y="114" type="curve" smooth="yes"/>
      <point x="275" y="181" type="line" smooth="yes"/>
      <point x="275" y="219"/>
      <point x="283" y="235"/>
      <point x="314" y="236" type="curve"/>
      <point x="326" y="311" type="line"/>
      <point x="259" y="337" type="line"/>
      <point x="262" y="358"/>
      <point x="276" y="380"/>
      <point x="323" y="380" type="curve" smooth="yes"/>
      <point x="378" y="380"/>
      <point x="398" y="350"/>
      <point x="398" y="307" type="curve" smooth="yes"/>
    </contour>
  </outline>
</glyph>
<glyph name="macronbelowcomb.alt" format="2">
  <anchor x="-47" y="0" name="_bottom"/>
  <outline>
    <contour>
      <point x="-120" y="-84" type="line"/>
      <point x="-766" y="-84" type="line"/>
      <point x="-766" y="-199" type="line"/>
      <point x="-120" y="-199" type="line"/>
    </contour>
  </outline>
</glyph>
<glyph name="maiChattawa-thai.narrow" format="2">
  <anchor x="-293" y="506" name="_top"/>
  <anchor x="-353" y="814" name="top"/>
  <outline>
    <contour>
      <point x="-510" y="604" type="line"/>
      <point x="-358" y="604" type="line"/>
      <point x="-358" y="843" type="line"/>
      <point x="-510" y="843" type="line"/>
    </contour>
    <contour>
      <point x="-575" y="673" type="line"/>
      <point x="-293" y="673" type="line"/>
      <point x="-293" y="775" type="line"/>
      <point x="-575" y="775" type="line"/>
    </contour>
  </outline>
</glyph>
<glyph name="maiChattawa-thai.small" format="2">
  <anchor x="-68" y="742" name="_top"/>
  <anchor x="-68" y="1028" name="top"/>
  <outline>
    <contour>
      <point x="-224" y="846" type="line"/>
      <point x="-82" y="846" type="line"/>
      <point x="-82" y="1037" type="line"/>
      <point x="-224" y="1037" type="line"/>
    </contour>
    <contour>
      <point x="-298" y="897" type="line"/>
      <point x="-8" y="897" type="line"/>
      <point x="-8" y="986" type="line"/>
      <point x="-298" y="986" type="line"/>
    </contour>
  </outline>
</glyph>
<glyph name="maiEk-thai.narrow" format="2">
  <anchor x="-293" y="506" name="_top"/>
  <anchor x="-293" y="815" name="top"/>
  <outline>
    <contour>
      <point x="-465" y="602" type="line"/>
      <point x="-293" y="602" type="line"/>
      <point x="-293" y="821" type="line"/>
      <point x="-465" y="821" type="line"/>
    </contour>
  </outline>
</glyph>
<glyph name="maiEk-thai.small" format="2">
  <anchor x="-68" y="742" name="_top"/>
  <anchor x="-68" y="1029" name="top"/>
  <outline>
    <contour>
      <point x="-228" y="846" type="line"/>
      <point x="-68" y="846" type="line"/>
      <point x="-68" y="1036" type="line"/>
      <point x="-228" y="1036" type="line"/>
    </contour>
  </outline>
</glyph>
<glyph name="maiHanaKat-thai.narrow" format="2">
  <anchor x="-293" y="506" name="_top"/>
  <anchor x="-293" y="722" name="top"/>
  <outline>
    <contour>
      <point x="-462" y="604" type="curve" smooth="yes"/>
      <point x="-293" y="604" type="line"/>
      <point x="-293" y="721" type="line"/>
      <point x="-405" y="721" type="line" smooth="yes"/>
      <point x="-433" y="721"/>
      <point x="-443" y="729"/>
      <point x="-443" y="748" type="curve" smooth="yes"/>
      <point x="-443" y="754"/>
      <point x="-442" y="763"/>
      <point x="-439" y="774" type="curve"/>
      <point x="-572" y="790" type="line"/>
      <point x="-587" y="760"/>
      <point x="-595" y="733"/>
      <point x="-595" y="707" type="curve" smooth="yes"/>
      <point x="-595" y="656"/>
      <point x="-565" y="604"/>
    </contour>
  </outline>
</glyph>
<glyph name="maiTho-thai.narrow" format="2">
  <anchor x="-293" y="506" name="_top"/>
  <anchor x="-352" y="815" name="top"/>
  <outline>
    <contour>
      <point x="-561" y="603" type="line"/>
      <point x="-293" y="603" type="line"/>
      <point x="-293" y="718" type="line"/>
      <point x="-404" y="718" type="line"/>
      <point x="-404" y="690" type="line"/>
      <point x="-367" y="706"/>
      <point x="-357" y="734"/>
      <point x="-357" y="757" type="curve" smooth="yes"/>
      <point x="-357" y="818"/>
      <point x="-396" y="843"/>
      <point x="-461" y="843" type="curve" smooth="yes"/>
      <point x="-493" y="843"/>
      <point x="-544" y="837"/>
      <point x="-571" y="814" type="curve"/>
      <point x="-552" y="739" type="line"/>
      <point x="-544" y="743"/>
      <point x="-532" y="746"/>
      <point x="-524" y="746" type="curve" smooth="yes"/>
      <point x="-510" y="746"/>
      <point x="-497" y="737"/>
      <point x="-497" y="716" type="curve" smooth="yes"/>
      <point x="-497" y="678"/>
      <point x="-543" y="664"/>
      <point x="-561" y="657" type="curve"/>
    </contour>
  </outline>
</glyph>
<glyph name="maiTho-thai.small" format="2">
  <anchor x="-68" y="742" name="_top"/>
  <anchor x="-68" y="1029" name="top"/>
  <outline>
    <contour>
      <point x="-271" y="846" type="line"/>
      <point x="22" y="846" type="line"/>
      <point x="22" y="932" type="line"/>
      <point x="-127" y="932" type="line"/>
      <point x="-119" y="909" type="line"/>
      <point x="-89" y="922"/>
      <point x="-83" y="945"/>
      <point x="-83" y="966" type="curve" smooth="yes"/>
      <point x="-83" y="1016"/>
      <point x="-119" y="1037"/>
      <point x="-179" y="1037" type="curve" smooth="yes"/>
      <point x="-209" y="1037"/>
      <point x="-256" y="1032"/>
      <point x="-281" y="1013" type="curve"/>
      <point x="-263" y="945" type="line"/>
      <point x="-256" y="952"/>
      <point x="-245" y="956"/>
      <point x="-236" y="956" type="curve" smooth="yes"/>
      <point x="-224" y="956"/>
      <point x="-212" y="948"/>
      <point x="-212" y="931" type="curve" smooth="yes"/>
      <point x="-212" y="899"/>
      <point x="-255" y="887"/>
      <point x="-271" y="881" type="curve"/>
    </contour>
  </outline>
</glyph>
<glyph name="maiTri-thai.narrow" format="2">
  <anchor x="-293" y="506" name="_top"/>
  <anchor x="-393" y="815" name="top"/>
  <outline>
    <contour>
      <point x="-542" y="599" type="curve" smooth="yes"/>
      <point x="-523" y="599"/>
      <point x="-497" y="603"/>
      <point x="-488" y="611" type="curve"/>
      <point x="-492" y="687" type="line"/>
      <point x="-499" y="685"/>
      <point x="-502" y="685"/>
      <point x="-507" y="685" type="curve" smooth="yes"/>
      <point x="-522" y="685"/>
      <point x="-530" y="699"/>
      <point x="-530" y="715" type="curve" smooth="yes"/>
      <point x="-530" y="733"/>
      <point x="-520" y="745"/>
      <point x="-511" y="746" type="curve"/>
      <point x="-486" y="729" type="line"/>
      <point x="-482" y="729" type="line"/>
      <point x="-456" y="746" type="line"/>
      <point x="-446" y="745"/>
      <point x="-435" y="735"/>
      <point x="-435" y="715" type="curve" smooth="yes"/>
      <point x="-435" y="696"/>
      <point x="-444" y="688"/>
      <point x="-457" y="683" type="curve"/>
      <point x="-457" y="604" type="line"/>
      <point x="-293" y="604" type="line"/>
      <point x="-293" y="706" type="line"/>
      <point x="-344" y="706" type="line"/>
      <point x="-341" y="687" type="line"/>
      <point x="-331" y="700"/>
      <point x="-323" y="720"/>
      <point x="-323" y="751" type="curve" smooth="yes"/>
      <point x="-323" y="804"/>
      <point x="-351" y="840"/>
      <point x="-435" y="843" type="curve"/>
      <point x="-485" y="804" type="line"/>
      <point x="-542" y="843" type="line"/>
      <point x="-603" y="841"/>
      <point x="-647" y="796"/>
      <point x="-647" y="718" type="curve" smooth="yes"/>
      <point x="-647" y="645"/>
      <point x="-608" y="599"/>
    </contour>
  </outline>
</glyph>
<glyph name="maiTri-thai.small" format="2">
  <anchor x="-68" y="742" name="_top"/>
  <anchor x="-68" y="1028" name="top"/>
  <outline>
    <contour>
      <point x="-252" y="841" type="curve" smooth="yes"/>
      <point x="-230" y="841"/>
      <point x="-205" y="846"/>
      <point x="-195" y="853" type="curve"/>
      <point x="-200" y="904" type="line"/>
      <point x="-205" y="902"/>
      <point x="-210" y="901"/>
      <point x="-215" y="901" type="curve" smooth="yes"/>
      <point x="-230" y="901"/>
      <point x="-243" y="910"/>
      <point x="-243" y="928" type="curve" smooth="yes"/>
      <point x="-243" y="945"/>
      <point x="-233" y="957"/>
      <point x="-225" y="957" type="curve"/>
      <point x="-193" y="935" type="line"/>
      <point x="-188" y="935" type="line"/>
      <point x="-156" y="957" type="line"/>
      <point x="-148" y="955"/>
      <point x="-138" y="944"/>
      <point x="-138" y="930" type="curve" smooth="yes"/>
      <point x="-138" y="914"/>
      <point x="-151" y="904"/>
      <point x="-160" y="901" type="curve"/>
      <point x="-160" y="846" type="line"/>
      <point x="42" y="846" type="line"/>
      <point x="42" y="924" type="line"/>
      <point x="-58" y="924" type="line"/>
      <point x="-54" y="907" type="line"/>
      <point x="-42" y="914"/>
      <point x="-30" y="933"/>
      <point x="-30" y="961" type="curve" smooth="yes"/>
      <point x="-30" y="1014"/>
      <point x="-75" y="1036"/>
      <point x="-148" y="1036" type="curve"/>
      <point x="-190" y="999" type="line"/>
      <point x="-234" y="1036" type="line"/>
      <point x="-321" y="1036"/>
      <point x="-358" y="994"/>
      <point x="-358" y="935" type="curve" smooth="yes"/>
      <point x="-358" y="883"/>
      <point x="-330" y="841"/>
    </contour>
  </outline>
</glyph>
<glyph name="maitaikhu-thai.narrow" format="2">
  <anchor x="-293" y="506" name="_top"/>
  <anchor x="-341" y="794" name="top"/>
  <outline>
    <contour>
      <point x="-385" y="591" type="curve" smooth="yes"/>
      <point x="-329" y="591"/>
      <point x="-293" y="626"/>
      <point x="-293" y="701" type="curve" smooth="yes"/>
      <point x="-293" y="725" type="line"/>
      <point x="-401" y="725" type="line"/>
      <point x="-401" y="709" type="line" smooth="yes"/>
      <point x="-401" y="690"/>
      <point x="-409" y="678"/>
      <point x="-423" y="678" type="curve" smooth="yes"/>
      <point x="-441" y="678"/>
      <point x="-451" y="696"/>
      <point x="-453" y="719" type="curve"/>
      <point x="-472" y="719" type="line"/>
      <point x="-506" y="680" type="line"/>
      <point x="-518" y="680"/>
      <point x="-526" y="696"/>
      <point x="-526" y="718" type="curve" smooth="yes"/>
      <point x="-526" y="748"/>
      <point x="-512" y="762"/>
      <point x="-494" y="762" type="curve" smooth="yes"/>
      <point x="-294" y="762" type="line"/>
      <point x="-294" y="845" type="line"/>
      <point x="-523" y="845" type="line" smooth="yes"/>
      <point x="-581" y="845"/>
      <point x="-635" y="804"/>
      <point x="-635" y="719" type="curve" smooth="yes"/>
      <point x="-635" y="638"/>
      <point x="-585" y="595"/>
      <point x="-507" y="595" type="curve"/>
      <point x="-464" y="636" type="line"/>
      <point x="-448" y="608"/>
      <point x="-422" y="591"/>
    </contour>
  </outline>
</glyph>
<glyph name="phinthu-thai.small" format="2">
  <anchor x="-56" y="-93" name="_bottom"/>
  <anchor x="-56" y="-227" name="bottom"/>
  <outline>
    <contour>
      <point x="-147" y="-259" type="curve" smooth="yes"/>
      <point x="-87" y="-259"/>
      <point x="-55" y="-237"/>
      <point x="-55" y="-199" type="curve" smooth="yes"/>
      <point x="-55" y="-162"/>
      <point x="-87" y="-139"/>
      <point x="-147" y="-139" type="curve" smooth="yes"/>
      <point x="-207" y="-139"/>
      <point x="-239" y="-161"/>
      <point x="-239" y="-199" type="curve" smooth="yes"/>
      <point x="-239" y="-237"/>
      <point x="-207" y="-259"/>
    </contour>
  </outline>
</glyph>
<glyph name="ru-thai.short" format="2">
  <advance width="627"/>
  <anchor x="571" y="-93" name="bottom"/>
  <anchor x="554" y="515" name="top"/>
  <outline>
    <contour>
      <point x="379" y="-127" type="line"/>
      <point x="571" y="-127" type="line"/>
      <point x="571" y="96" type="line"/>
      <point x="379" y="96" type="line"/>
    </contour>
    <component base="thoThung-thai"/>
  </outline>
</glyph>
<glyph name="ru_lakkhangyao-thai" format="2">
  <advance width="962"/>
  <outline>
    <contour>
      <point x="379" y="-210" type="line"/>
      <point x="571" y="-210" type="line"/>
      <point x="571" y="299" type="line" smooth="yes"/>
      <point x="571" y="350"/>
      <point x="591" y="380"/>
      <point x="642" y="380" type="curve" smooth="yes"/>
      <point x="694" y="380"/>
      <point x="714" y="349"/>
      <point x="714" y="298" type="curve" smooth="yes"/>
      <point x="714" y="-210" type="line"/>
      <point x="906" y="-210" type="line"/>
      <point x="906" y="326" type="line" smooth="yes"/>
      <point x="906" y="445"/>
      <point x="837" y="532"/>
      <point x="678" y="532" type="curve" smooth="yes"/>
      <point x="586" y="532"/>
      <point x="521" y="501"/>
      <point x="488" y="450" type="curve"/>
      <point x="485" y="450" type="line"/>
      <point x="451" y="502"/>
      <point x="386" y="532"/>
      <point x="290" y="532" type="curve" smooth="yes"/>
      <point x="134" y="532"/>
      <point x="42" y="451"/>
      <point x="42" y="344" type="curve" smooth="yes"/>
      <point x="42" y="326" type="line"/>
      <point x="146" y="291" type="line"/>
      <point x="145" y="287" type="line"/>
      <point x="80" y="265"/>
      <point x="46" y="228"/>
      <point x="46" y="159" type="curve" smooth="yes"/>
      <point x="46" y="131" type="line" smooth="yes"/>
      <point x="46" y="45"/>
      <point x="101" y="-10"/>
      <point x="208" y="-10" type="curve" smooth="yes"/>
      <point x="254" y="-10"/>
      <point x="293" y="1"/>
      <point x="317" y="13" type="curve"/>
      <point x="303" y="119" type="line"/>
      <point x="293" y="115"/>
      <point x="281" y="113"/>
      <point x="271" y="113" type="curve" smooth="yes"/>
      <point x="243" y="113"/>
      <point x="232" y="124"/>
      <point x="232" y="150" type="curve" smooth="yes"/>
      <point x="232" y="186" type="line" smooth="yes"/>
      <point x="232" y="224"/>
      <point x="248" y="234"/>
      <point x="295" y="236" type="curve"/>
      <point x="307" y="310" type="line"/>
      <point x="240" y="337" type="line"/>
      <point x="243" y="358"/>
      <point x="257" y="380"/>
      <point x="304" y="380" type="curve" smooth="yes"/>
      <point x="359" y="380"/>
      <point x="379" y="350"/>
      <point x="379" y="307" type="curve" smooth="yes"/>
    </contour>
  </outline>
</glyph>
<glyph name="saraI-thai.narrow" format="2">
  <anchor x="-292" y="506" name="_top"/>
  <anchor x="-292" y="683" name="top"/>
  <outline>
    <contour>
      <point x="-686" y="603" type="line"/>
      <point x="-293" y="603" type="line"/>
      <point x="-293" y="732" type="line"/>
      <point x="-596" y="732" type="line"/>
      <point x="-686" y="682" type="line"/>
    </contour>
  </outline>
</glyph>
<glyph name="saraIi-thai.narrow" format="2">
  <anchor x="-293" y="506" name="_top"/>
  <anchor x="-293" y="742" name="top"/>
  <outline>
    <contour>
      <point x="-686" y="604" type="line"/>
      <point x="-293" y="604" type="line"/>
      <point x="-293" y="723" type="line"/>
      <point x="-596" y="723" type="line"/>
      <point x="-686" y="673" type="line"/>
    </contour>
    <contour>
      <point x="-443" y="681" type="line"/>
      <point x="-293" y="681" type="line"/>
      <point x="-293" y="794" type="line"/>
      <point x="-443" y="794" type="line"/>
    </contour>
  </outline>
</glyph>
<glyph name="saraU-thai.small" format="2">
  <anchor x="-56" y="-93" name="_bottom"/>
  <anchor x="-56" y="-231" name="bottom"/>
  <outline>
    <contour>
      <point x="-219" y="-261" type="line"/>
      <point x="-56" y="-261" type="line"/>
      <point x="-56" y="-225" type="line" smooth="yes"/>
      <point x="-56" y="-175"/>
      <point x="-81" y="-144"/>
      <point x="-159" y="-144" type="curve" smooth="yes"/>
      <point x="-206" y="-144"/>
      <point x="-249" y="-155"/>
      <point x="-268" y="-163" type="curve"/>
      <point x="-261" y="-222" type="line"/>
      <point x="-255" y="-220"/>
      <point x="-248" y="-218"/>
      <point x="-241" y="-218" type="curve" smooth="yes"/>
      <point x="-226" y="-218"/>
      <point x="-219" y="-226"/>
      <point x="-219" y="-243" type="curve" smooth="yes"/>
    </contour>
  </outline>
</glyph>
<glyph name="saraUe-thai.narrow" format="2">
  <anchor x="-293" y="506" name="_top"/>
  <anchor x="-293" y="742" name="top"/>
  <outline>
    <contour>
      <point x="-686" y="604" type="line"/>
      <point x="-383" y="604" type="line" smooth="yes"/>
      <point x="-311" y="604"/>
      <point x="-278" y="647"/>
      <point x="-278" y="705" type="curve" smooth="yes"/>
      <point x="-278" y="763"/>
      <point x="-317" y="806"/>
      <point x="-382" y="806" type="curve" smooth="yes"/>
      <point x="-445" y="806"/>
      <point x="-483" y="767"/>
      <point x="-483" y="718" type="curve" smooth="yes"/>
      <point x="-483" y="707"/>
      <point x="-481" y="696"/>
      <point x="-477" y="684" type="curve"/>
      <point x="-441" y="723" type="line"/>
      <point x="-596" y="723" type="line"/>
      <point x="-686" y="673" type="line"/>
    </contour>
    <contour>
      <point x="-383" y="664" type="curve" smooth="yes"/>
      <point x="-411" y="664"/>
      <point x="-425" y="683"/>
      <point x="-425" y="705" type="curve" smooth="yes"/>
      <point x="-425" y="727"/>
      <point x="-410" y="744"/>
      <point x="-385" y="744" type="curve" smooth="yes"/>
      <point x="-359" y="744"/>
      <point x="-344" y="727"/>
      <point x="-344" y="703" type="curve" smooth="yes"/>
      <point x="-344" y="681"/>
      <point x="-357" y="664"/>
    </contour>
  </outline>
</glyph>
<glyph name="saraUee-thai.narrow" format="2">
  <anchor x="-293" y="506" name="_top"/>
  <anchor x="-320" y="742" name="top"/>
  <outline>
    <contour>
      <point x="-686" y="604" type="line"/>
      <point x="-293" y="604" type="line"/>
      <point x="-293" y="723" type="line"/>
      <point x="-596" y="723" type="line"/>
      <point x="-686" y="673" type="line"/>
    </contour>
    <contour>
      <point x="-514" y="707" type="line"/>
      <point x="-426" y="707" type="line"/>
      <point x="-426" y="794" type="line"/>
      <point x="-514" y="794" type="line"/>
    </contour>
    <contour>
      <point x="-381" y="707" type="line"/>
      <point x="-293" y="707" type="line"/>
      <point x="-293" y="794" type="line"/>
      <point x="-381" y="794" type="line"/>
    </contour>
  </outline>
</glyph>
<glyph name="saraUu-thai.small" format="2">
  <anchor x="-57" y="-93" name="_bottom"/>
  <anchor x="-56" y="-231" name="bottom"/>
  <outline>
    <contour>
      <point x="-229" y="-265" type="curve" smooth="yes"/>
      <point x="-106" y="-265"/>
      <point x="-57" y="-239"/>
      <point x="-57" y="-190" type="curve" smooth="yes"/>
      <point x="-57" y="-143" type="line"/>
      <point x="-209" y="-143" type="line"/>
      <point x="-209" y="-194" type="line" smooth="yes"/>
      <point x="-209" y="-204"/>
      <point x="-216" y="-210"/>
      <point x="-235" y="-210" type="curve" smooth="yes"/>
      <point x="-254" y="-210"/>
      <point x="-260" y="-204"/>
      <point x="-260" y="-194" type="curve" smooth="yes"/>
      <point x="-260" y="-191" type="line" smooth="yes"/>
      <point x="-260" y="-165"/>
      <point x="-289" y="-140"/>
      <point x="-354" y="-140" type="curve" smooth="yes"/>
      <point x="-374" y="-140"/>
      <point x="-406" y="-142"/>
      <point x="-428" y="-147" type="curve"/>
      <point x="-421" y="-193" type="line"/>
      <point x="-408" y="-192"/>
      <point x="-400" y="-197"/>
      <point x="-400" y="-209" type="curve" smooth="yes"/>
      <point x="-400" y="-214" type="line" smooth="yes"/>
      <point x="-400" y="-243"/>
      <point x="-351" y="-265"/>
    </contour>
  </outline>
</glyph>
<glyph name="thanthakhat-thai.narrow" format="2">
  <anchor x="-293" y="506" name="_top"/>
  <anchor x="-293" y="741" name="top"/>
  <outline>
    <contour>
      <point x="-525" y="580" type="curve"/>
      <point x="-380" y="604" type="line"/>
      <point x="-385" y="614"/>
      <point x="-388" y="624"/>
      <point x="-388" y="634" type="curve" smooth="yes"/>
      <point x="-388" y="655"/>
      <point x="-374" y="662"/>
      <point x="-349" y="662" type="curve" smooth="yes"/>
      <point x="-293" y="662" type="line"/>
      <point x="-293" y="786" type="line"/>
      <point x="-406" y="786" type="line" smooth="yes"/>
      <point x="-506" y="786"/>
      <point x="-547" y="736"/>
      <point x="-547" y="671" type="curve" smooth="yes"/>
      <point x="-547" y="636"/>
      <point x="-538" y="602"/>
    </contour>
  </outline>
</glyph>
<glyph name="thanthakhat-thai.small" format="2">
  <anchor x="-68" y="742" name="_top"/>
  <anchor x="-68" y="1026" name="top"/>
  <outline>
    <contour>
      <point x="-235" y="816" type="curve"/>
      <point x="-111" y="846" type="line"/>
      <point x="-117" y="857"/>
      <point x="-120" y="873"/>
      <point x="-120" y="882" type="curve" smooth="yes"/>
      <point x="-120" y="909"/>
      <point x="-104" y="922"/>
      <point x="-67" y="922" type="curve" smooth="yes"/>
      <point x="22" y="922" type="line"/>
      <point x="22" y="1024" type="line"/>
      <point x="-80" y="1024" type="line" smooth="yes"/>
      <point x="-224" y="1024"/>
      <point x="-262" y="969"/>
      <point x="-262" y="911" type="curve" smooth="yes"/>
      <point x="-262" y="880"/>
      <point x="-254" y="845"/>
    </contour>
  </outline>
</glyph>
<glyph name="thoThan-thai.less" format="2">
  <advance width="576"/>
  <anchor x="471" y="0" name="bottom"/>
  <anchor x="535" y="515" name="top"/>
  <outline>
    <contour>
      <point x="92" y="0" type="line"/>
      <point x="249" y="0" type="line" smooth="yes"/>
      <point x="455" y="0"/>
      <point x="541" y="100"/>
      <point x="541" y="257" type="curve" smooth="yes"/>
      <point x="541" y="381"/>
      <point x="493" y="437"/>
      <point x="436" y="447" type="curve"/>
      <point x="418" y="521"/>
      <point x="344" y="541"/>
      <point x="249" y="541" type="curve" smooth="yes"/>
      <point x="151" y="541"/>
      <point x="86" y="519"/>
      <point x="40" y="500" type="curve"/>
      <point x="40" y="345" type="line"/>
      <point x="78" y="365"/>
      <point x="131" y="391"/>
      <point x="207" y="391" type="curve" smooth="yes"/>
      <point x="289" y="391"/>
      <point x="346" y="362"/>
      <point x="346" y="264" type="curve" smooth="yes"/>
      <point x="346" y="191"/>
      <point x="313" y="143"/>
      <point x="264" y="143" type="curve" smooth="yes"/>
      <point x="262" y="143" type="line"/>
      <point x="262" y="315" type="line"/>
      <point x="49" y="315" type="line"/>
      <point x="49" y="209" type="line"/>
      <point x="92" y="209" type="line"/>
    </contour>
    <contour>
      <point x="432" y="395" type="line"/>
      <point x="539" y="432"/>
      <point x="566" y="502"/>
      <point x="566" y="561" type="curve"/>
      <point x="420" y="561" type="line"/>
      <point x="425" y="530"/>
      <point x="404" y="503"/>
      <point x="348" y="481" type="curve"/>
    </contour>
  </outline>
</glyph>
<glyph name="toPatak-thai.short" format="2">
  <advance width="646"/>
  <anchor x="590" y="-93" name="bottom"/>
  <anchor x="553" y="515" name="top"/>
  <outline>
    <contour>
      <point x="45" y="-127" type="line"/>
      <point x="190" y="-127" type="line"/>
      <point x="190" y="-124" type="line" smooth="yes"/>
      <point x="190" y="-107"/>
      <point x="203" y="-93"/>
      <point x="227" y="-93" type="curve" smooth="yes"/>
      <point x="249" y="-93"/>
      <point x="272" y="-105"/>
      <point x="281" y="-127" type="curve"/>
      <point x="316" y="-127" type="line"/>
      <point x="355" y="-95" type="line"/>
      <point x="408" y="-127" type="line"/>
      <point x="590" y="-127" type="line"/>
      <point x="590" y="321" type="line" smooth="yes"/>
      <point x="590" y="463"/>
      <point x="502" y="541"/>
      <point x="327" y="541" type="curve" smooth="yes"/>
      <point x="147" y="541"/>
      <point x="61" y="459"/>
      <point x="61" y="351" type="curve" smooth="yes"/>
      <point x="61" y="333" type="line"/>
      <point x="165" y="297" type="line"/>
      <point x="164" y="293" type="line"/>
      <point x="112" y="279"/>
      <point x="90" y="243"/>
      <point x="90" y="194" type="curve" smooth="yes"/>
      <point x="90" y="150" type="line" smooth="yes"/>
      <point x="90" y="129"/>
      <point x="80" y="118"/>
      <point x="57" y="118" type="curve" smooth="yes"/>
      <point x="50" y="118"/>
      <point x="44" y="119"/>
      <point x="36" y="122" type="curve"/>
      <point x="19" y="25" type="line"/>
      <point x="43" y="12"/>
      <point x="79" y="1"/>
      <point x="126" y="1" type="curve" smooth="yes"/>
      <point x="214" y="1"/>
      <point x="275" y="38"/>
      <point x="275" y="125" type="curve" smooth="yes"/>
      <point x="275" y="184" type="line" smooth="yes"/>
      <point x="275" y="224"/>
      <point x="283" y="241"/>
      <point x="314" y="242" type="curve"/>
      <point x="326" y="317" type="line"/>
      <point x="259" y="344" type="line"/>
      <point x="262" y="367"/>
      <point x="276" y="389"/>
      <point x="323" y="389" type="curve" smooth="yes"/>
      <point x="378" y="389"/>
      <point x="398" y="359"/>
      <point x="398" y="313" type="curve" smooth="yes"/>
      <point x="398" y="-79" type="line"/>
      <point x="416" y="-71" type="line"/>
      <point x="349" y="-31" type="line"/>
      <point x="298" y="-71" type="line"/>
      <point x="273" y="-27"/>
      <point x="228" y="-9"/>
      <point x="171" y="-9" type="curve" smooth="yes"/>
      <point x="105" y="-9"/>
      <point x="45" y="-33"/>
      <point x="45" y="-105" type="curve" smooth="yes"/>
    </contour>
  </outline>
</glyph>
<glyph name="yoYing-thai.less" format="2">
  <advance width="909"/>
  <anchor x="846" y="0" name="bottom"/>
  <anchor x="853" y="506" name="top"/>
  <outline>
    <contour>
      <point x="608" y="-15" type="curve" smooth="yes"/>
      <point x="774" y="-15"/>
      <point x="853" y="56"/>
      <point x="853" y="219" type="curve" smooth="yes"/>
      <point x="853" y="526" type="line"/>
      <point x="661" y="526" type="line"/>
      <point x="661" y="199" type="line" smooth="yes"/>
      <point x="661" y="155"/>
      <point x="637" y="137"/>
      <point x="606" y="137" type="curve" smooth="yes"/>
      <point x="575" y="137"/>
      <point x="551" y="155"/>
      <point x="551" y="199" type="curve" smooth="yes"/>
      <point x="551" y="343" type="line" smooth="yes"/>
      <point x="551" y="468"/>
      <point x="458" y="541"/>
      <point x="300" y="541" type="curve" smooth="yes"/>
      <point x="132" y="541"/>
      <point x="42" y="458"/>
      <point x="42" y="351" type="curve" smooth="yes"/>
      <point x="42" y="333" type="line"/>
      <point x="146" y="297" type="line"/>
      <point x="145" y="293" type="line"/>
      <point x="80" y="271"/>
      <point x="46" y="239"/>
      <point x="46" y="169" type="curve" smooth="yes"/>
      <point x="46" y="132" type="line" smooth="yes"/>
      <point x="46" y="45"/>
      <point x="101" y="-10"/>
      <point x="208" y="-10" type="curve" smooth="yes"/>
      <point x="254" y="-10"/>
      <point x="293" y="1"/>
      <point x="317" y="13" type="curve"/>
      <point x="303" y="119" type="line"/>
      <point x="293" y="115"/>
      <point x="281" y="113"/>
      <point x="271" y="113" type="curve" smooth="yes"/>
      <point x="243" y="113"/>
      <point x="232" y="125"/>
      <point x="232" y="151" type="curve" smooth="yes"/>
      <point x="232" y="189" type="line" smooth="yes"/>
      <point x="232" y="229"/>
      <point x="248" y="240"/>
      <point x="295" y="242" type="curve"/>
      <point x="307" y="318" type="line"/>
      <point x="240" y="348" type="line"/>
      <point x="244" y="378"/>
      <point x="263" y="393"/>
      <point x="300" y="393" type="curve" smooth="yes"/>
      <point x="343" y="393"/>
      <point x="363" y="373"/>
      <point x="363" y="326" type="curve" smooth="yes"/>
      <point x="363" y="219" type="line" smooth="yes"/>
      <point x="363" y="56"/>
      <point x="442" y="-15"/>
    </contour>
  </outline>
</glyph>
